<svg width="60" height="60" viewBox="0 0 60 60" fill="none" xmlns="http://www.w3.org/2000/svg">
<g clip-path="url(#clip0)">
<path d="M59.6946 0.301169C57.0859 -2.29541 38.0404 12.4518 27.2012 23.2408C24.5737 25.8559 22.714 28.0365 21.4258 29.8703C23.1949 30.4154 24.8546 31.4102 26.2978 32.8471C26.9162 33.4626 27.4955 34.1587 28.0196 34.9155C28.8268 36.0817 29.3925 37.3067 29.7264 38.5714C31.6217 37.2849 33.8953 35.382 36.6479 32.6431C47.4872 21.8546 62.3034 2.89775 59.6946 0.301169Z" fill="#EDB021"/>
<path d="M9.19767 35.7038C-1.16096 41.7241 8.12502 49.8428 0.844727 57.1226C6.10032 62.3786 14.4294 59.6786 19.0589 55.0487C23.3558 50.7527 26.8044 44.6132 22.8674 38.8959C19.5312 34.052 14.2583 32.7628 9.19767 35.7038Z" fill="#EDB021"/>
</g>
<defs>
<clipPath id="clip0">
<rect width="60" height="60" fill="white"/>
</clipPath>
</defs>
</svg>
