<svg width="119" height="30" viewBox="0 0 119 30" fill="none" xmlns="http://www.w3.org/2000/svg">
<g clip-path="url(#clip0)">
<path fill-rule="evenodd" clip-rule="evenodd" d="M118.182 1.05649C118.182 1.05649 115.985 0.792969 113.388 0.792969C110.858 0.792969 108.728 1.05649 108.728 1.05649V9.29145H118.182V1.05649Z" fill="#E4003E"/>
<path fill-rule="evenodd" clip-rule="evenodd" d="M118.182 20.4912H108.728V28.8579C108.728 28.8579 111.391 29.1214 113.521 29.1214C115.652 29.1214 118.182 28.792 118.182 28.792V20.4912Z" fill="#E4003E"/>
<path fill-rule="evenodd" clip-rule="evenodd" d="M103.068 1.05664H91.4159L83.2932 11.1362H79.4981V1.05664H69.4443V28.9237H79.4981V18.4489H83.16L91.3495 28.9237H103.8L91.6159 14.1008L103.068 1.05664Z" fill="#242265"/>
<path fill-rule="evenodd" clip-rule="evenodd" d="M31.7591 1.05664H0V28.9237H10.1869V8.96219H21.5722V28.9237H31.7591V1.05664Z" fill="#242265"/>
<path fill-rule="evenodd" clip-rule="evenodd" d="M36.6864 8.43522L35.2217 1.05671C35.2217 1.05671 44.7427 0.332031 50.6684 0.332031C56.5941 0.332031 63.7183 1.05671 63.7183 1.05671C63.7183 1.05671 65.9155 6.72235 65.9155 14.6938C65.9155 22.6652 63.6517 28.9238 63.6517 28.9238C63.6517 28.9238 56.8605 29.6485 50.6019 29.6485C44.3432 29.6485 35.2217 28.9238 35.2217 28.9238L36.6864 21.5453C36.6864 21.5453 43.0782 22.0065 48.5379 22.0065C53.9975 22.0065 56.128 21.5453 56.128 21.5453C56.128 21.5453 56.3944 20.1618 56.5276 18.5806H43.4777V11.4657H56.5941C56.461 9.62109 56.1947 8.5011 56.1947 8.5011C56.1947 8.5011 51.7337 8.03995 47.9386 8.03995C44.077 7.97406 36.6864 8.43522 36.6864 8.43522Z" fill="#242265"/>
</g>
<defs>
<clipPath id="clip0">
<rect width="118.182" height="30" fill="white"/>
</clipPath>
</defs>
</svg>
