<svg width="20" height="20" viewBox="0 0 20 20" fill="none" xmlns="http://www.w3.org/2000/svg">
<g clip-path="url(#clip0)">
<path d="M14.7011 0.800781H6.09817C3.17665 0.800781 0.799805 3.17774 0.799805 6.09926V14.7022C0.799805 17.6238 3.17665 20.0007 6.09817 20.0007H14.7011C17.6228 20.0007 19.9997 17.6237 19.9997 14.7022V6.09926C19.9998 3.17774 17.6228 0.800781 14.7011 0.800781ZM18.2963 14.7022C18.2963 16.6845 16.6835 18.2972 14.7012 18.2972H6.09817C4.11596 18.2973 2.50331 16.6845 2.50331 14.7022V6.09926C2.50331 4.11705 4.11596 2.50429 6.09817 2.50429H14.7011C16.6834 2.50429 18.2962 4.11705 18.2962 6.09926V14.7022H18.2963Z" fill="white"/>
<path d="M10.3995 5.45312C7.67148 5.45312 5.45215 7.67245 5.45215 10.4004C5.45215 13.1283 7.67148 15.3475 10.3995 15.3475C13.1275 15.3475 15.3468 13.1283 15.3468 10.4004C15.3468 7.67245 13.1275 5.45312 10.3995 5.45312ZM10.3995 13.6439C8.6109 13.6439 7.15566 12.1889 7.15566 10.4003C7.15566 8.61165 8.61079 7.15652 10.3995 7.15652C12.1882 7.15652 13.6433 8.61165 13.6433 10.4003C13.6433 12.1889 12.188 13.6439 10.3995 13.6439Z" fill="white"/>
<path d="M15.5549 4.00977C15.2267 4.00977 14.9043 4.14264 14.6725 4.37545C14.4396 4.60713 14.3057 4.92966 14.3057 5.259C14.3057 5.58733 14.4397 5.90974 14.6725 6.14256C14.9042 6.37423 15.2267 6.50824 15.5549 6.50824C15.8842 6.50824 16.2056 6.37423 16.4384 6.14256C16.6713 5.90974 16.8041 5.58721 16.8041 5.259C16.8041 4.92966 16.6713 4.60713 16.4384 4.37545C16.2068 4.14264 15.8842 4.00977 15.5549 4.00977Z" fill="white"/>
</g>
<defs>
<clipPath id="clip0">
<rect width="19.2" height="19.2" fill="white" transform="translate(0.799805 0.800781)"/>
</clipPath>
</defs>
</svg>
