<svg width="20" height="20" viewBox="0 0 20 20" fill="none" xmlns="http://www.w3.org/2000/svg">
<g clip-path="url(#clip0)">
<path d="M19.8287 14.6951C19.7771 14.6087 19.4578 13.915 17.9217 12.4893C16.3136 10.9964 16.5296 11.2388 18.4666 8.65741C19.6463 7.08529 20.1179 6.12522 19.9703 5.71479C19.8299 5.32356 18.9622 5.42677 18.9622 5.42677L16.0772 5.44357C16.0772 5.44357 15.8636 5.41477 15.704 5.50957C15.5492 5.60318 15.4495 5.8192 15.4495 5.8192C15.4495 5.8192 14.9923 7.03609 14.3827 8.07056C13.0974 10.2535 12.5825 10.3687 12.3725 10.2331C11.8841 9.9175 12.0065 8.96343 12.0065 8.28658C12.0065 6.17082 12.3269 5.28876 11.3812 5.06074C11.0668 4.98513 10.8364 4.93473 10.0335 4.92633C9.00387 4.91553 8.13141 4.92993 7.63817 5.17115C7.30935 5.33196 7.05613 5.69079 7.21094 5.71119C7.40176 5.73639 7.83379 5.8276 8.063 6.13962C8.35943 6.54165 8.34863 7.44652 8.34863 7.44652C8.34863 7.44652 8.51904 9.9367 7.9514 10.2463C7.56137 10.4587 7.02733 10.0255 5.88124 8.04416C5.2944 7.03009 4.85037 5.908 4.85037 5.908C4.85037 5.908 4.76516 5.69919 4.61275 5.58758C4.42794 5.45197 4.16872 5.40877 4.16872 5.40877L1.42532 5.42557C1.42532 5.42557 1.01369 5.43757 0.862477 5.61638C0.728067 5.77599 0.851676 6.10482 0.851676 6.10482C0.851676 6.10482 2.99983 11.1296 5.43121 13.663C7.66218 15.9852 10.1944 15.8327 10.1944 15.8327H11.3416C11.3416 15.8327 11.6885 15.7943 11.8649 15.6035C12.0281 15.4283 12.0221 15.0995 12.0221 15.0995C12.0221 15.0995 11.9993 13.5598 12.7145 13.333C13.419 13.1097 14.3239 14.8211 15.2827 15.4799C16.0076 15.978 16.5584 15.8687 16.5584 15.8687L19.123 15.8327C19.123 15.8327 20.4647 15.7499 19.8287 14.6951Z" fill="white"/>
</g>
<defs>
<clipPath id="clip0">
<rect width="19.2" height="19.2" fill="white" transform="translate(0.799805 0.800781)"/>
</clipPath>
</defs>
</svg>
