<svg width="102" height="24" viewBox="0 0 102 24" fill="none" xmlns="http://www.w3.org/2000/svg">
<g clip-path="url(#clip0)">
<path d="M52.8605 6.60508H49.5881L47.2723 10.6748H46.0803L46.0422 1.86719H42.9443V17.774H46.0422L46.0803 13.4082H47.2647L50.3398 17.774H53.7718L49.7626 11.9884L52.8605 6.60508Z" fill="white"/>
<path d="M76.3074 11.8443C75.678 11.4371 74.9957 11.1177 74.2799 10.8952L73.5965 10.6371L73.4144 10.5688C72.9893 10.4093 72.5413 10.2423 72.526 9.80948C72.5222 9.68129 72.5504 9.55417 72.6091 9.44C72.6674 9.32579 72.7538 9.22826 72.8601 9.15649C73.0845 9.0019 73.3474 8.91253 73.6194 8.89836C74.2125 8.85741 74.8007 9.03272 75.2746 9.39188L75.358 9.44503L77.0133 7.53923L76.9298 7.47093C76.7237 7.2872 76.5001 7.12442 76.2616 6.98499C75.8346 6.74072 75.3706 6.56883 74.8876 6.47626C74.1916 6.32822 73.4723 6.32822 72.7767 6.47626C72.1039 6.56529 71.4658 6.82685 70.9241 7.23554C70.5775 7.50659 70.2879 7.84327 70.0716 8.22628C69.8556 8.60929 69.7169 9.03116 69.6636 9.46781C69.5687 10.2558 69.7687 11.051 70.2255 11.7001C70.8319 12.3718 71.6251 12.8476 72.5032 13.0668L72.6399 13.1123L72.9512 13.2186C74.075 13.5983 74.3938 13.7501 74.5759 13.9779C74.6609 14.0925 74.7085 14.2303 74.7127 14.3727C74.7127 14.9118 74.0521 15.132 73.6041 15.2687C73.291 15.3275 72.9691 15.3215 72.6582 15.251C72.3474 15.1805 72.0544 15.0469 71.7973 14.8587C71.3809 14.5803 71.0247 14.2215 70.7493 13.8033C70.5748 13.9855 68.8586 15.6787 68.8891 15.7091L68.9424 15.785C69.7691 16.8202 70.9276 17.5388 72.2224 17.8198C72.518 17.8771 72.8175 17.9151 73.1184 17.9338H73.4297C74.4525 17.9552 75.4544 17.6434 76.2845 17.0454C76.846 16.6483 77.2765 16.0933 77.5222 15.4509C77.6716 15.0197 77.7241 14.5609 77.6769 14.107C77.6296 13.6531 77.4837 13.2151 77.2487 12.8238C77.0087 12.4336 76.6876 12.0996 76.3074 11.8443Z" fill="white"/>
<path d="M86.315 11.8445C85.6883 11.4372 85.0091 11.1179 84.2956 10.8954L83.6045 10.6372L83.4301 10.5689C82.9973 10.4094 82.5569 10.2424 82.5341 9.80963C82.536 9.68166 82.568 9.55599 82.6274 9.44258C82.6868 9.32921 82.7718 9.23126 82.8758 9.15664C83.1002 9.00201 83.363 8.91267 83.635 8.8985C84.2282 8.85892 84.8156 9.03408 85.2903 9.39203L85.3661 9.44517L87.0213 7.53938L86.9455 7.47103C86.7379 7.28555 86.5116 7.12265 86.2697 6.98513C85.8453 6.74117 85.3836 6.56924 84.9028 6.47641C84.2045 6.32818 83.483 6.32818 82.7847 6.47641C82.1127 6.56806 81.475 6.82936 80.9318 7.23568C80.5832 7.50418 80.291 7.83896 80.072 8.22075C79.8533 8.60254 79.712 9.0238 79.6563 9.46037C79.5569 10.2486 79.7573 11.0454 80.2183 11.6926C80.8247 12.3644 81.6179 12.8401 82.496 13.0593L82.6251 13.1049L82.9363 13.2112C84.0678 13.5908 84.3866 13.7427 84.5687 13.9705C84.6563 14.0831 84.7021 14.2227 84.6979 14.3653C84.6979 14.9044 84.0449 15.1246 83.5969 15.2612C83.2826 15.3202 82.9592 15.3143 82.6472 15.2438C82.3352 15.1733 82.0407 15.0397 81.7824 14.8512C81.3695 14.5688 81.0141 14.2107 80.7344 13.7958C80.5676 13.978 78.8514 15.6712 78.8742 15.7016L78.9348 15.7776C79.7619 16.8127 80.9203 17.5313 82.2152 17.8124C82.5108 17.8701 82.8102 17.9081 83.1112 17.9263H83.4224C84.4453 17.9477 85.4472 17.6359 86.2773 17.0379C86.8388 16.6408 87.2693 16.0859 87.515 15.4435C87.664 15.0122 87.7169 14.5535 87.6697 14.0996C87.6224 13.6457 87.4765 13.2076 87.2415 12.8164C87.0045 12.4309 86.6887 12.0997 86.315 11.8445Z" fill="white"/>
<path d="M63.0348 6.60532V7.69866H62.8984C62.0504 6.84963 60.9015 6.36944 59.7018 6.36235C58.9662 6.3478 58.2356 6.48837 57.5582 6.77485C56.8805 7.06136 56.2706 7.48738 55.7685 8.02517C54.7559 9.15908 54.2131 10.6359 54.25 12.1556C54.2108 13.7009 54.7525 15.2046 55.7685 16.3696C56.2588 16.9078 56.8588 17.3341 57.5285 17.6197C58.1978 17.9053 58.9209 18.0435 59.6485 18.0248C60.85 18.0023 62.0055 17.5589 62.9133 16.772H63.0348V17.7515H66.2542V6.60532H63.0348ZM63.1944 12.2164C63.2268 13.1146 62.9266 13.9932 62.3514 14.684C62.0759 14.9927 61.7358 15.237 61.3552 15.3997C60.975 15.5624 60.5632 15.6395 60.1498 15.6255C59.7487 15.6323 59.351 15.5484 58.9868 15.3801C58.6226 15.2118 58.3011 14.9635 58.0466 14.6536C57.4782 13.9485 57.1868 13.0603 57.2264 12.1556C57.2005 11.2781 57.4977 10.4216 58.0615 9.74871C58.3213 9.44357 58.6451 9.19953 59.01 9.03416C59.375 8.86875 59.7719 8.78609 60.1723 8.79203C60.5834 8.77923 60.9918 8.85774 61.3685 9.02186C61.7453 9.18597 62.0813 9.43161 62.3514 9.74113C62.9266 10.435 63.2264 11.3159 63.1944 12.2164Z" fill="white"/>
<path d="M98.0524 6.60521V7.69858H97.9156C97.0695 6.85138 95.924 6.3713 94.7267 6.36224C93.9903 6.34856 93.2589 6.48944 92.58 6.77584C91.9015 7.06228 91.2901 7.48784 90.7861 8.02506C89.7735 9.15896 89.2307 10.6358 89.2676 12.1555C89.2284 13.7008 89.7701 15.2045 90.7861 16.3695C91.2764 16.9076 91.8764 17.334 92.5457 17.6196C93.2154 17.9052 93.9385 18.0434 94.6661 18.0248C95.8676 18.0022 97.0227 17.5588 97.9309 16.772H98.0524V17.7514H101.272V6.60521H98.0524ZM98.212 12.2163C98.2478 13.115 97.9472 13.9949 97.369 14.6839C97.0935 14.9926 96.7533 15.2369 96.3728 15.3996C95.9922 15.5623 95.5808 15.6394 95.1671 15.6254C94.7659 15.6322 94.3686 15.5483 94.0044 15.38C93.6402 15.2117 93.3187 14.9634 93.0638 14.6536C92.4958 13.9484 92.204 13.0603 92.244 12.1555C92.2181 11.278 92.5152 10.4216 93.079 9.74864C93.3389 9.44346 93.6627 9.19946 94.0276 9.03405C94.3926 8.86867 94.7895 8.78597 95.1899 8.79195C95.601 8.77915 96.0093 8.85763 96.3861 9.02174C96.7629 9.18586 97.0985 9.43153 97.369 9.74102C97.9472 10.4331 98.2474 11.3152 98.212 12.2163Z" fill="white"/>
<path d="M21.7979 0C15.1143 0 9.79785 5.39242 9.79785 12C9.79785 18.6835 15.1903 24 21.7979 24C28.4055 24 33.7979 18.6076 33.7979 12C33.7979 5.39242 28.4055 0 21.7979 0ZM21.7979 16.4051C19.3675 16.4051 17.3169 14.3544 17.3169 11.924C17.3169 9.49368 19.3675 7.44305 21.7979 7.44305C24.2283 7.44305 26.2789 9.49368 26.2789 11.924C26.2029 14.4304 24.2283 16.4051 21.7979 16.4051Z" fill="white"/>
<path d="M9.72152 3.41797V20.8863H5.46834L0 3.41797H9.72152Z" fill="white"/>
</g>
<defs>
<clipPath id="clip0">
<rect width="101.333" height="24" fill="white"/>
</clipPath>
</defs>
</svg>
