<svg width="20" height="20" viewBox="0 0 20 20" fill="none" xmlns="http://www.w3.org/2000/svg">
<g clip-path="url(#clip0)">
<path d="M19.6042 5.79101C19.3829 4.9685 18.7344 4.32016 17.912 4.09868C16.4096 3.6875 10.3996 3.6875 10.3996 3.6875C10.3996 3.6875 4.38983 3.6875 2.88734 4.08301C2.08081 4.30434 1.4165 4.96865 1.19516 5.79101C0.799805 7.29334 0.799805 10.4091 0.799805 10.4091C0.799805 10.4091 0.799805 13.5404 1.19516 15.0271C1.41665 15.8495 2.06499 16.4979 2.88749 16.7194C4.40565 17.1306 10.3998 17.1306 10.3998 17.1306C10.3998 17.1306 16.4096 17.1306 17.912 16.7351C18.7345 16.5138 19.3829 15.8653 19.6044 15.0429C19.9997 13.5404 19.9997 10.4249 19.9997 10.4249C19.9997 10.4249 20.0155 7.29334 19.6042 5.79101Z" fill="white"/>
<path d="M8.48633 13.2881L13.4839 10.4097L8.48633 7.53125V13.2881Z" fill="#2A2B2C"/>
</g>
<defs>
<clipPath id="clip0">
<rect width="19.2" height="19.2" fill="white" transform="translate(0.799805 0.800781)"/>
</clipPath>
</defs>
</svg>
