<svg width="146" height="23" viewBox="0 0 146 23" fill="none" xmlns="http://www.w3.org/2000/svg">
<path d="M65.3512 6.86385L68.3824 4.62695H58.2344V18.0264H68.3824V15.7895H61.1338V12.3684H67.3281V10.1315H61.1338V6.86385H65.3512Z" fill="white"/>
<path d="M50.5682 9.84637H47.0537V6.86385H52.6769L55.7082 4.62695H44.1543V18.0264H50.1948C53.5775 18.0264 55.5324 16.4913 55.5324 13.8158C55.5324 11.2499 53.7752 9.84637 50.5682 9.84637ZM50.085 15.7895H47.0537V12.0833H50.085C51.9301 12.0833 52.7868 12.6973 52.7868 13.9473C52.7868 15.1974 51.8642 15.7895 50.085 15.7895Z" fill="white"/>
<path d="M76.5973 4.62695H71.084V18.0264H73.9834V14.2324H76.6193C80.1338 14.2324 82.3303 12.3903 82.3303 9.42969C82.3303 6.4691 80.1338 4.62695 76.5973 4.62695ZM76.5314 11.9955H73.9615V6.86385H76.5314C78.3985 6.86385 79.4089 7.78492 79.4089 9.42969C79.4089 11.0745 78.3985 11.9955 76.5314 11.9955Z" fill="white"/>
<path d="M39.1901 15.1312C38.4213 15.5479 37.5646 15.7672 36.686 15.7672C34.0721 15.7672 32.1831 13.9031 32.1831 11.3373C32.1831 8.77145 34.0721 6.90737 36.686 6.90737C37.6305 6.88544 38.5531 7.19246 39.3219 7.74072L41.4086 6.2056L41.2768 6.07402C40.0687 4.99943 38.4433 4.45117 36.5981 4.45117C34.5993 4.45117 32.7761 5.13101 31.4582 6.35911C30.1403 7.63107 29.3935 9.40743 29.4374 11.2496C29.4154 13.1137 30.1403 14.9119 31.4582 16.2278C32.842 17.5216 34.6871 18.2453 36.5762 18.2015C38.6629 18.2015 40.486 17.4778 41.7161 16.162L39.849 14.7804L39.1901 15.1312Z" fill="white"/>
<path d="M117.19 4.64888V18.0483H120.09V12.5657H126.262V18.0483H129.162V4.64888H126.262V10.1534H120.09V4.64888H117.19ZM112.204 18.0483H115.257L109.59 4.64888H106.647L100.87 18.0483H103.791L104.956 15.3509H111.106L112.204 18.0483ZM105.834 13.114L108.075 7.74106L110.183 13.114H105.834ZM135.663 12.6315H137.465L141.902 18.0264H145.636L139.705 11.0964L144.889 4.62695H141.572L137.267 10.3727H135.663V4.62695H132.764V18.0264H135.663V12.6315ZM91.293 9.8683V6.88578H98.8711V4.64888H88.3936V18.0483H94.4341C97.8168 18.0483 99.7717 16.5132 99.7717 13.8377C99.7717 11.2718 98.0145 9.8683 94.8075 9.8683H91.293ZM91.293 15.8114V12.1052H94.3242C96.1693 12.1052 97.026 12.7192 97.026 13.9693C97.026 15.2193 96.1254 15.8333 94.3242 15.8333H91.293V15.8114Z" fill="white"/>
<path d="M20.3664 4.53906C20.8935 5.2189 21.3328 5.96453 21.7063 6.75403L11.5582 14.2323L7.29688 11.5568V8.35494L11.5362 11.0085L20.3664 4.53906Z" fill="white"/>
<path d="M2.96938 11.3378C2.96938 11.1843 2.96938 11.0527 2.99135 10.8992L0.42138 10.7676C0.42138 10.943 0.399414 11.1404 0.399414 11.3158C0.399414 14.3861 1.65145 17.1712 3.67228 19.1888L5.49542 17.3686C3.93586 15.8335 2.96938 13.7062 2.96938 11.3378Z" fill="white"/>
<path d="M11.5365 2.7846C11.6903 2.7846 11.8221 2.7846 11.9758 2.80653L12.1076 0.24068C11.9319 0.24068 11.7342 0.21875 11.5585 0.21875C8.4833 0.21875 5.69368 1.46878 3.67285 3.48637L5.49599 5.30658C7.03358 3.74953 9.1862 2.7846 11.5365 2.7846Z" fill="white"/>
<path d="M11.5359 19.8911C11.3822 19.8911 11.2504 19.8911 11.0966 19.8692L10.9648 22.435C11.1406 22.435 11.3383 22.457 11.514 22.457C14.5892 22.457 17.3788 21.2069 19.3996 19.1894L17.5765 17.3691C16.0389 18.9481 13.9082 19.8911 11.5359 19.8911Z" fill="white"/>
<path d="M16.3685 4.27631L18.5431 2.67539C16.6321 1.14027 14.194 0.197266 11.5361 0.197266V2.76311C13.3373 2.78504 15.0067 3.3333 16.3685 4.27631Z" fill="white"/>
<path d="M22.6945 11.3375C22.6945 10.6576 22.6286 9.99971 22.5188 9.3418L20.1246 11.1182C20.1246 11.1839 20.1246 11.2717 20.1246 11.3375C20.1246 13.8594 19.0263 16.1183 17.291 17.6753L19.0263 19.5833C21.2668 17.5657 22.6945 14.6051 22.6945 11.3375Z" fill="white"/>
<path d="M11.5354 19.8915C9.00937 19.8915 6.74692 18.795 5.18737 17.0625L3.27637 18.795C5.31916 21.0538 8.26254 22.4574 11.5354 22.4574V19.8915Z" fill="white"/>
<path d="M5.80293 4.99974L4.06766 3.0918C1.80521 5.13132 0.399414 8.06998 0.399414 11.3376H2.96938C2.96938 8.83754 4.06766 6.55679 5.80293 4.99974Z" fill="white"/>
</svg>
