<svg width="60" height="60" viewBox="0 0 60 60" fill="none" xmlns="http://www.w3.org/2000/svg">
<g clip-path="url(#clip0)">
<path d="M56.1904 6.6665H3.80959C1.70577 6.6665 0 8.37217 0 10.476V49.5237C0 51.6274 1.70577 53.3331 3.80959 53.3331H56.1904C58.2943 53.3331 60.0001 51.6274 60.0001 49.5236V10.476C60.0001 8.37217 58.2944 6.6665 56.1904 6.6665ZM56.1904 10.476V38.1816L48.6828 31.3559C47.5544 30.3302 45.8191 30.3712 44.741 31.4503L37.1427 39.0473L22.161 21.1521C21.0285 19.7997 18.9542 19.7864 17.8048 21.1226L3.80959 37.3874V10.476H56.1904ZM40.0001 20.476C40.0001 17.5826 42.3447 15.2379 45.238 15.2379C48.1315 15.2379 50.4761 17.5826 50.4761 20.476C50.4761 23.3693 48.1316 25.714 45.238 25.714C42.3448 25.7141 40.0001 23.3693 40.0001 20.476Z" fill="#EDB021"/>
</g>
<defs>
<clipPath id="clip0">
<rect width="60.0001" height="60" fill="white"/>
</clipPath>
</defs>
</svg>
