<svg width="235" height="26" viewBox="0 0 235 26" fill="none" xmlns="http://www.w3.org/2000/svg">
<path d="M30.0703 0H35.7483V26H29.3801V9.36023L19.6763 21.4695H16.0705L6.36668 9.36023V26H0V0H5.94504L18.0272 15.2667L30.0703 0Z" fill="white"/>
<path d="M102.255 0V5.64638H90.6708V26H83.92V5.64638H72.3359V0H102.255Z" fill="white"/>
<path d="M124.117 26L121.623 21.1339H105.437L102.943 26H95.5781L109.923 0H117.48L131.826 26H124.117ZM107.968 16.1952H119.091L113.529 5.27439L107.968 16.1952Z" fill="white"/>
<path d="M142.993 20.3536H162.02V26H136.244V0H142.993V20.3536Z" fill="white"/>
<path d="M166.309 7.20692C166.309 2.2652 168.687 0 173.751 0H190.896C195.959 0 198.337 2.2652 198.337 7.20692V8.95195H191.549V8.31987C191.549 6.09095 190.743 5.27439 188.402 5.27439H176.244C173.904 5.27439 173.098 6.09095 173.098 8.31987V17.8283C173.098 20.0572 173.904 20.8738 176.244 20.8738H188.633C190.973 20.8738 191.778 20.0572 191.778 17.8283V16.3433L182.649 11.5135H198.337V18.793C198.337 23.7348 195.959 26 190.896 26H173.751C168.687 26 166.309 23.7348 166.309 18.793V7.20692Z" fill="#EDB021"/>
<path d="M210.451 26C205.387 26 203.009 23.7348 203.009 18.793V7.20692C203.009 2.2652 205.387 0 210.451 0H227.557C232.622 0 235 2.2652 235 7.20692V18.793C235 23.7348 232.622 26 227.557 26H210.451ZM225.102 20.5774C227.443 20.5774 228.249 19.7608 228.249 17.5319V8.46806C228.249 6.23914 227.443 5.42258 225.102 5.42258H212.906C210.604 5.42258 209.76 6.23914 209.76 8.46806V17.5319C209.76 19.7608 210.604 20.5774 212.906 20.5774H225.102Z" fill="#EDB021"/>
<path d="M17.8738 0H9.31738L18.0268 11.0484L26.4302 0H17.8738Z" fill="#EDB021"/>
<path d="M67.6391 5.27435V0H40.3828V26H67.6391V20.7256H47.1727V15.4871H67.6391V10.5128H47.1727V5.27435H67.6391Z" fill="white"/>
</svg>
