<svg width="36" height="36" viewBox="0 0 36 36" fill="none" xmlns="http://www.w3.org/2000/svg">
<g clip-path="url(#clip0)">
<path d="M12.1624 26.3575H14.1424V23.7861H10.8574C11.564 24.476 12.0228 25.38 12.1624 26.3575Z" fill="#EDB021"/>
<path d="M7.71427 23.7861C5.93909 23.7861 4.5 25.2252 4.5 27.0004C4.5 28.7756 5.93909 30.2147 7.71427 30.2147C9.48945 30.2147 10.9285 28.7756 10.9285 27.0004C10.9279 25.2254 9.48923 23.7868 7.71427 23.7861ZM7.71427 28.929C6.64917 28.929 5.78566 28.0656 5.78566 27.0004C5.78566 25.9352 6.6491 25.0718 7.71427 25.0718C8.77943 25.0718 9.64287 25.9352 9.64287 27.0004C9.6397 28.0642 8.77809 28.9258 7.71427 28.929Z" fill="#EDB021"/>
<path d="M7.71416 26.3574C7.35915 26.3574 7.07129 26.6452 7.07129 27.0003C7.07129 27.3554 7.35908 27.6431 7.71416 27.6431C8.06923 27.6431 8.35702 27.3554 8.35702 27.0003C8.35597 26.6457 8.06881 26.3585 7.71416 26.3574Z" fill="#EDB021"/>
<path d="M1.28613 23.7861V25.7147C1.28719 26.0693 1.57434 26.3565 1.929 26.3576H3.26613C3.40577 25.38 3.86456 24.476 4.57113 23.7862H1.28613V23.7861Z" fill="#EDB021"/>
<path d="M23.7857 6.429C23.7847 6.07441 23.4975 5.78719 23.1429 5.78613H0.642867C0.288211 5.78712 0.00105469 6.07434 0 6.429V22.5004H23.7857V6.429Z" fill="#EDB021"/>
<path d="M19.9287 23.7861H15.4287V26.3575H19.9287V23.7861Z" fill="#EDB021"/>
<path d="M35.833 16.773L31.4037 11.7844C31.2804 11.6485 31.1051 11.5714 30.9216 11.5723H28.9287V18.0009C28.9298 18.3555 29.2169 18.6427 29.5716 18.6438H36.0001V17.2038C35.9992 17.0445 35.9397 16.8912 35.833 16.773Z" fill="#EDB021"/>
<path d="M28.2856 23.7861C26.5104 23.7861 25.0713 25.2252 25.0713 27.0004C25.0713 28.7756 26.5104 30.2147 28.2856 30.2147C30.0607 30.2147 31.4998 28.7756 31.4998 27.0004C31.4992 25.2254 30.0605 23.7868 28.2856 23.7861ZM28.2856 28.929C27.2205 28.929 26.357 28.0656 26.357 27.0004C26.357 25.9352 27.2204 25.0718 28.2856 25.0718C29.3507 25.0718 30.2142 25.9352 30.2142 27.0004C30.211 28.0642 29.3494 28.9258 28.2856 28.929Z" fill="#EDB021"/>
<path d="M27.6427 18.0009V11.5723H25.0713V22.5009H28.2856C30.5202 22.5042 32.4141 24.1464 32.7342 26.358H35.357C35.7116 26.3569 35.9988 26.0698 35.9999 25.7151V19.9294H29.5713C28.5075 19.9263 27.6458 19.0647 27.6427 18.0009Z" fill="#EDB021"/>
<path d="M21.2139 23.7861V26.3575H23.8367C23.9764 25.38 24.4352 24.476 25.1417 23.7861H21.2139Z" fill="#EDB021"/>
<path d="M28.2854 26.3574C27.9304 26.3574 27.6426 26.6452 27.6426 27.0003C27.6426 27.3554 27.9304 27.6431 28.2854 27.6431C28.6405 27.6431 28.9283 27.3554 28.9283 27.0003C28.9273 26.6457 28.64 26.3585 28.2854 26.3574Z" fill="#EDB021"/>
</g>
<defs>
<clipPath id="clip0">
<rect width="36" height="36" fill="white"/>
</clipPath>
</defs>
</svg>
