<svg width="284" height="284" viewBox="0 0 284 284" fill="none" xmlns="http://www.w3.org/2000/svg">
<rect width="284" height="284" fill="white"/>
<g clip-path="url(#clip0)">
<path d="M42.2425 119.018V136.051H40.5103V121.159L37.4307 123.781L36.3721 122.578L40.7027 119.018H42.2425Z" fill="#161718"/>
<path d="M55.2148 57H26V58.7185H55.2148V57Z" fill="#D2D2D2"/>
<path d="M55.2148 196.199H26V197.918H55.2148V196.199Z" fill="#D2D2D2"/>
<path d="M40.6074 190.185V143.785" stroke="#D2D2D2" stroke-linejoin="bevel"/>
<path d="M40.6077 196.2L35.4521 187.607H45.7633L40.6077 196.2Z" fill="#D2D2D2"/>
<path d="M40.6074 63.875V110.275" stroke="#D2D2D2" stroke-linejoin="bevel"/>
<path d="M40.6077 58.7188L35.4521 67.3113H45.7633L40.6077 58.7188Z" fill="#D2D2D2"/>
<path d="M160.897 220.437V221.977H149.998V220.172L156.975 213.123C158.339 211.728 159.02 210.428 159.02 209.225C159.02 208.263 158.691 207.485 158.034 206.892C157.392 206.282 156.598 205.977 155.652 205.977C154.754 205.977 153.992 206.258 153.366 206.819C152.741 207.381 152.332 208.111 152.139 209.009L150.431 208.672C150.672 207.453 151.273 206.459 152.236 205.689C153.198 204.903 154.337 204.51 155.652 204.51C157.111 204.51 158.33 204.919 159.309 205.737C160.287 206.555 160.777 207.71 160.777 209.201C160.777 210.196 160.544 211.078 160.079 211.848C159.614 212.602 158.924 213.436 158.01 214.35L151.875 220.437H160.897Z" fill="#161718"/>
<path d="M55.2148 197.918V227.133H56.9334V197.918H55.2148Z" fill="#D2D2D2"/>
<path d="M256.281 197.918V227.133H258V197.918H256.281Z" fill="#D2D2D2"/>
<path d="M249.408 212.525L168.638 213.423" stroke="#D2D2D2" stroke-linejoin="bevel"/>
<path d="M255.423 212.527L246.83 217.682V207.371L255.423 212.527Z" fill="#D2D2D2"/>
<path d="M62.6055 212.525L141.142 213.385" stroke="#D2D2D2" stroke-linejoin="bevel"/>
<path d="M56.9336 212.527L66.3854 217.682V207.371L56.9336 212.527Z" fill="#D2D2D2"/>
<path d="M258 197.918V57L55.2147 57V197.918H258Z" fill="#848484"/>
</g>
<defs>
<clipPath id="clip0">
<rect width="232" height="170.133" fill="white" transform="translate(26 57)"/>
</clipPath>
</defs>
</svg>
