<svg width="284" height="284" viewBox="0 0 284 284" fill="none" xmlns="http://www.w3.org/2000/svg">
<rect width="284" height="284" fill="white"/>
<g clip-path="url(#clip0)">
<path d="M274.757 81.9536V80.512H275.478C276.626 80.512 277.548 80.2717 278.245 79.7912C278.959 79.2951 279.315 78.5278 279.315 77.4893C279.315 76.5903 278.997 75.8539 278.361 75.2804C277.727 74.6913 276.96 74.3969 276.059 74.3969C274.634 74.3969 273.588 75.0401 272.921 76.3267L271.502 75.5827C272.51 73.8466 274.06 72.9785 276.152 72.9785C277.518 72.9785 278.657 73.3738 279.57 74.1643C280.5 74.9394 280.966 76.0167 280.966 77.3963C280.966 78.3418 280.695 79.148 280.152 79.8145C279.625 80.4809 278.943 80.9305 278.106 81.163V81.2095C279.082 81.411 279.881 81.876 280.501 82.6046C281.122 83.3332 281.431 84.2322 281.431 85.3018C281.431 86.821 280.919 88.03 279.896 88.929C278.873 89.828 277.617 90.2776 276.129 90.2776C274.937 90.2776 273.882 89.9908 272.967 89.4173C272.069 88.8282 271.386 87.9912 270.921 86.9062L272.502 86.3249C272.781 87.1 273.246 87.7122 273.897 88.1617C274.548 88.6113 275.292 88.836 276.129 88.836C277.122 88.836 277.974 88.5183 278.687 87.8827C279.401 87.2317 279.756 86.3714 279.756 85.3018C279.756 84.1392 279.346 83.2944 278.524 82.7674C277.704 82.2248 276.687 81.9536 275.478 81.9536H274.757Z" fill="#161718"/>
<path d="M239.158 83.2168H262.409" stroke="#D2D2D2" stroke-linejoin="bevel"/>
<path d="M230.854 83.2168L239.158 78.2344V88.1993L230.854 83.2168Z" fill="#D2D2D2"/>
<path d="M190.995 83.2168L182.69 78.2344V88.1993L190.995 83.2168Z" fill="#D2D2D2"/>
<path d="M164.421 83.2168H186.012" stroke="#D2D2D2" stroke-linejoin="bevel"/>
<path d="M137.01 226.219V227.707H126.478V225.963L133.22 219.15C134.538 217.802 135.197 216.546 135.197 215.383C135.197 214.453 134.879 213.702 134.243 213.128C133.623 212.539 132.856 212.245 131.942 212.245C131.073 212.245 130.337 212.516 129.733 213.058C129.128 213.601 128.733 214.306 128.547 215.174L126.896 214.849C127.129 213.671 127.71 212.71 128.64 211.966C129.57 211.206 130.67 210.826 131.942 210.826C133.352 210.826 134.53 211.221 135.476 212.012C136.421 212.803 136.894 213.919 136.894 215.36C136.894 216.322 136.669 217.174 136.22 217.918C135.77 218.647 135.104 219.452 134.22 220.336L128.291 226.219H137.01Z" fill="#161718"/>
<path d="M34.877 206.118V234.352H36.5378V206.118H34.877Z" fill="#D2D2D2"/>
<path d="M229.193 206.118V234.352H230.854V206.118H229.193Z" fill="#D2D2D2"/>
<path d="M220.889 219.404H151.135" stroke="#D2D2D2" stroke-linejoin="bevel"/>
<path d="M229.193 219.404L220.889 224.387V214.422L229.193 219.404Z" fill="#D2D2D2"/>
<path d="M44.8418 219.404H111.275" stroke="#D2D2D2" stroke-linejoin="bevel"/>
<path d="M36.5381 219.404L44.8422 224.387V214.422L36.5381 219.404Z" fill="#D2D2D2"/>
<path d="M19.0191 119.9V136.362H17.345V121.97L14.3688 124.504L13.3457 123.342L17.5311 119.9H19.0191Z" fill="#161718"/>
<path d="M34.8772 50H0V51.6608H34.8772V50Z" fill="#D2D2D2"/>
<path d="M34.8772 204.457H0V206.118H34.8772V204.457Z" fill="#D2D2D2"/>
<path d="M16.6084 196.151V144.666" stroke="#D2D2D2" stroke-linejoin="bevel"/>
<path d="M16.6084 204.456L11.626 196.152H21.5909L16.6084 204.456Z" fill="#D2D2D2"/>
<path d="M16.6084 59.9648V111.45" stroke="#D2D2D2" stroke-linejoin="bevel"/>
<path d="M16.6084 51.6602L11.626 59.9643H21.5909L16.6084 51.6602Z" fill="#D2D2D2"/>
<path fill-rule="evenodd" clip-rule="evenodd" d="M74.7366 50V166.257H190.994V50L230.854 50V206.117H34.877V50L74.7366 50Z" fill="#848484"/>
</g>
<defs>
<clipPath id="clip0">
<rect width="284" height="184.351" fill="white" transform="translate(0 50)"/>
</clipPath>
</defs>
</svg>
