<svg width="284" height="284" viewBox="0 0 284 284" fill="none" xmlns="http://www.w3.org/2000/svg">
<rect width="284" height="284" fill="white"/>
<path d="M144.095 232.504V249.244H142.393V234.608L139.367 237.186L138.326 236.003L142.582 232.504H144.095Z" fill="#161718"/>
<path d="M227.778 256V174.934H226.089V256H227.778Z" fill="#D2D2D2"/>
<path d="M57.2002 256.001L57.2002 176.623H55.5113L55.5113 256.001H57.2002Z" fill="#D2D2D2"/>
<path d="M63.1113 242.488H130.667" stroke="#D2D2D2" stroke-linejoin="bevel"/>
<path d="M57.2002 242.489L65.6446 237.422V247.555L57.2002 242.489Z" fill="#D2D2D2"/>
<path d="M221.022 242.486H153.467" stroke="#D2D2D2" stroke-linejoin="bevel"/>
<path d="M226.089 242.485L217.645 237.418V247.551L226.089 242.485Z" fill="#D2D2D2"/>
<path d="M208.376 130.375H210.051V133.158H208.376V136.089H205.371V133.158H197.613V130.375L203.302 118.355H206.381L200.691 130.375H205.371V125.769H208.376V130.375ZM213.964 133.059H216.993V136.089H213.964V133.059ZM224.482 118.355H227.51V136.089H224.482V121.582L221.157 123.626V120.351L224.482 118.355Z" fill="#161718"/>
<path d="M169.511 127.645H189.778" stroke="#D2D2D2" stroke-linejoin="bevel"/>
<path d="M163.6 127.645L172.045 122.578V132.711L163.6 127.645Z" fill="#D2D2D2"/>
<path d="M114.622 127.645H94.3555" stroke="#D2D2D2" stroke-linejoin="bevel"/>
<path d="M119.689 127.645L111.245 122.578V132.711L119.689 127.645Z" fill="#D2D2D2"/>
<path d="M141.644 28L227.938 77.8222V177.467L141.644 227.289L55.3496 177.467V77.8222L141.644 28Z" fill="#848484"/>
</svg>
