<svg width="284" height="284" viewBox="0 0 284 284" fill="none" xmlns="http://www.w3.org/2000/svg">
<rect width="284" height="284" fill="white"/>
<g clip-path="url(#clip0)">
<path d="M159.385 246.043V247.556H148.679V245.783L155.533 238.855C156.872 237.484 157.542 236.207 157.542 235.025C157.542 234.079 157.219 233.314 156.573 232.731C155.942 232.132 155.162 231.833 154.233 231.833C153.35 231.833 152.602 232.108 151.987 232.66C151.373 233.213 150.971 233.929 150.782 234.812L149.104 234.481C149.34 233.284 149.931 232.306 150.877 231.549C151.822 230.777 152.941 230.391 154.233 230.391C155.667 230.391 156.864 230.793 157.825 231.596C158.786 232.4 159.267 233.535 159.267 235.001C159.267 235.979 159.038 236.846 158.581 237.602C158.124 238.344 157.447 239.163 156.549 240.061L150.522 246.043H159.385Z" fill="#161718"/>
<path d="M225.127 256V227.289H223.439V256H225.127Z" fill="#D2D2D2"/>
<path d="M88.3867 256V227.289H86.6986V256H88.3867Z" fill="#D2D2D2"/>
<path d="M214.999 240.801H172.795" stroke="#D2D2D2" stroke-linejoin="bevel"/>
<path d="M223.439 240.799L214.998 235.732V245.866L223.439 240.799Z" fill="#D2D2D2"/>
<path d="M96.8271 240.801H139.031" stroke="#D2D2D2" stroke-linejoin="bevel"/>
<path d="M88.3867 240.799L96.8275 235.732V245.866L88.3867 240.799Z" fill="#D2D2D2"/>
<path d="M70.552 128.051V126.585H71.2846C72.4506 126.585 73.3881 126.34 74.0971 125.852C74.8219 125.347 75.1844 124.567 75.1844 123.511C75.1844 122.597 74.8613 121.848 74.2153 121.265C73.5693 120.666 72.7894 120.366 71.8755 120.366C70.4259 120.366 69.3624 121.02 68.6849 122.329L67.2432 121.572C68.2674 119.807 69.843 118.924 71.97 118.924C73.3566 118.924 74.5147 119.326 75.4444 120.13C76.3897 120.918 76.8624 122.013 76.8624 123.416C76.8624 124.378 76.5866 125.198 76.0352 125.875C75.4994 126.553 74.8061 127.01 73.9553 127.247V127.294C74.948 127.499 75.7594 127.972 76.3897 128.713C77.0199 129.454 77.3351 130.368 77.3351 131.455C77.3351 133 76.8151 134.23 75.7752 135.144C74.7352 136.058 73.459 136.515 71.9464 136.515C70.7332 136.515 69.6618 136.224 68.7322 135.64C67.8183 135.041 67.125 134.19 66.6523 133.087L68.2595 132.496C68.5431 133.284 69.0158 133.906 69.6775 134.364C70.3393 134.821 71.0956 135.049 71.9464 135.049C72.9548 135.049 73.8214 134.726 74.5462 134.08C75.271 133.418 75.6334 132.543 75.6334 131.455C75.6334 130.273 75.2158 129.414 74.3807 128.878C73.5457 128.326 72.5136 128.051 71.2846 128.051H70.552Z" fill="#161718"/>
<path d="M86.6987 28H58V29.6882H86.6987V28Z" fill="#D2D2D2"/>
<path d="M86.6987 225.6H58V227.288H86.6987V225.6Z" fill="#D2D2D2"/>
<path d="M72.3496 217.155V144.533" stroke="#D2D2D2" stroke-linejoin="bevel"/>
<path d="M72.3496 225.601L67.2852 217.156H77.4141L72.3496 225.601Z" fill="#D2D2D2"/>
<path d="M72.3496 38.1328V110.755" stroke="#D2D2D2" stroke-linejoin="bevel"/>
<path d="M72.3496 29.6875L67.2852 38.1319H77.4141L72.3496 29.6875Z" fill="#D2D2D2"/>
<path d="M225.128 28H86.6992V227.289H225.128V28Z" fill="#848484"/>
</g>
<defs>
<clipPath id="clip0">
<rect width="167.128" height="228" fill="white" transform="translate(58 28)"/>
</clipPath>
</defs>
</svg>
