<svg width="284" height="284" viewBox="0 0 284 284" fill="none" xmlns="http://www.w3.org/2000/svg">
<rect width="284" height="284" fill="white"/>
<path d="M243.429 196.889V220.533" stroke="#D2D2D2" stroke-linejoin="bevel"/>
<path d="M243.429 188.445L238.357 196.89H248.5L243.429 188.445Z" fill="#D2D2D2"/>
<path d="M243.429 225.601L248.5 217.156H238.357L243.429 225.601Z" fill="#D2D2D2"/>
<path d="M273.85 204.051V202.585H274.584C275.752 202.585 276.69 202.34 277.4 201.852C278.125 201.347 278.489 200.566 278.489 199.511C278.489 198.597 278.166 197.847 277.519 197.265C276.871 196.666 276.09 196.366 275.176 196.366C273.724 196.366 272.659 197.02 271.981 198.329L270.537 197.572C271.563 195.807 273.14 194.924 275.27 194.924C276.658 194.924 277.818 195.326 278.749 196.13C279.696 196.918 280.169 198.013 280.169 199.416C280.169 200.377 279.894 201.198 279.341 201.875C278.805 202.553 278.11 203.01 277.258 203.247V203.294C278.252 203.498 279.065 203.971 279.696 204.713C280.326 205.454 280.643 206.368 280.643 207.455C280.643 209.001 280.122 210.23 279.081 211.144C278.039 212.058 276.761 212.515 275.247 212.515C274.031 212.515 272.959 212.223 272.028 211.64C271.113 211.041 270.419 210.19 269.945 209.087L271.555 208.496C271.839 209.284 272.312 209.906 272.975 210.364C273.637 210.821 274.395 211.049 275.247 211.049C276.256 211.049 277.125 210.727 277.85 210.08C278.575 209.418 278.939 208.543 278.939 207.455C278.939 206.273 278.521 205.414 277.684 204.878C276.848 204.326 275.815 204.051 274.584 204.051H273.85Z" fill="#161718"/>
<path d="M256.952 186.756H228.214V188.444H256.952V186.756Z" fill="#D2D2D2"/>
<path d="M256.952 225.6H228.214V227.288H256.952V225.6Z" fill="#D2D2D2"/>
<path d="M133.643 246.043V247.556H122.922V245.783L129.785 238.855C131.126 237.484 131.797 236.207 131.797 235.025C131.797 234.079 131.474 233.314 130.827 232.731C130.195 232.132 129.414 231.833 128.484 231.833C127.6 231.833 126.851 232.108 126.235 232.66C125.62 233.213 125.218 233.929 125.028 234.812L123.348 234.481C123.585 233.284 124.176 232.306 125.123 231.549C126.07 230.777 127.19 230.391 128.484 230.391C129.919 230.391 131.119 230.793 132.081 231.596C133.043 232.4 133.525 233.535 133.525 235.001C133.525 235.979 133.296 236.846 132.838 237.602C132.381 238.344 131.702 239.163 130.803 240.061L124.768 246.043H133.643Z" fill="#161718"/>
<path d="M228.214 256V227.289H226.523V256H228.214Z" fill="#D2D2D2"/>
<path d="M30.4287 256V227.289H28.7382V256H30.4287Z" fill="#D2D2D2"/>
<path d="M218.071 240.801H147.071" stroke="#D2D2D2" stroke-linejoin="bevel"/>
<path d="M226.524 240.799L218.071 235.732V245.866L226.524 240.799Z" fill="#D2D2D2"/>
<path d="M38.8809 240.801H109.881" stroke="#D2D2D2" stroke-linejoin="bevel"/>
<path d="M30.4287 240.799L38.8811 235.732V245.866L30.4287 240.799Z" fill="#D2D2D2"/>
<path d="M15.9778 119.348V136.088H14.2738V121.452L11.2445 124.029L10.2031 122.847L14.4631 119.348H15.9778Z" fill="#161718"/>
<path d="M28.7381 28H0V29.6882H28.7381V28Z" fill="#D2D2D2"/>
<path d="M28.7381 225.6H0V227.288H28.7381V225.6Z" fill="#D2D2D2"/>
<path d="M14.3691 217.155V144.533" stroke="#D2D2D2" stroke-linejoin="bevel"/>
<path d="M14.3693 225.601L9.29785 217.156H19.4407L14.3693 225.601Z" fill="#D2D2D2"/>
<path d="M14.3691 38.1328V110.755" stroke="#D2D2D2" stroke-linejoin="bevel"/>
<path d="M14.3693 29.6875L9.29785 38.1319H19.4407L14.3693 29.6875Z" fill="#D2D2D2"/>
<path fill-rule="evenodd" clip-rule="evenodd" d="M68.6344 28H28.7383V227.289H228.214V187.431H68.6344V28Z" fill="#848484"/>
</svg>
