<svg width="284" height="284" viewBox="0 0 284 284" fill="none" xmlns="http://www.w3.org/2000/svg">
<rect width="284" height="284" fill="white"/>
<path d="M264.904 230.65V232.212H253.856V230.381L260.929 223.232C262.31 221.817 263.002 220.499 263.002 219.279C263.002 218.303 262.669 217.513 262.002 216.912C261.352 216.293 260.547 215.985 259.587 215.985C258.676 215.985 257.905 216.269 257.271 216.839C256.637 217.409 256.222 218.148 256.027 219.059L254.295 218.718C254.539 217.482 255.149 216.473 256.124 215.692C257.1 214.895 258.255 214.496 259.587 214.496C261.066 214.496 262.303 214.911 263.294 215.741C264.285 216.57 264.782 217.741 264.782 219.254C264.782 220.264 264.547 221.158 264.075 221.939C263.602 222.704 262.904 223.549 261.977 224.476L255.759 230.65H264.904Z" fill="#161718"/>
<path d="M245.819 242.668H275.432V240.925H245.819V242.668Z" fill="#D2D2D2"/>
<path d="M220.658 215.928L246.516 242.06" stroke="#D2D2D2" stroke-linejoin="bevel"/>
<path d="M214.502 209.764L216.965 219.623L224.356 212.229L214.502 209.764Z" fill="#D2D2D2"/>
<path d="M179.101 174.348L162.243 157.48" stroke="#D2D2D2" stroke-linejoin="bevel"/>
<path d="M185.259 180.512L175.406 178.047L182.796 170.652L185.259 180.512Z" fill="#D2D2D2"/>
<path d="M23.4632 131.273V148.549H21.7073V133.445L18.5857 136.105L17.5127 134.885L21.9024 131.273H23.4632Z" fill="#161718"/>
<path d="M137.645 37H7V38.743H137.645V37Z" fill="#D2D2D2"/>
<path d="M137.645 240.926H7V242.669H137.645V240.926Z" fill="#D2D2D2"/>
<path d="M21.8066 232.211V157.264" stroke="#D2D2D2" stroke-linejoin="bevel"/>
<path d="M21.8059 240.926L16.5801 232.211H27.0317L21.8059 240.926Z" fill="#D2D2D2"/>
<path d="M21.8066 47.457V122.404" stroke="#D2D2D2" stroke-linejoin="bevel"/>
<path d="M21.8059 38.7422L16.5801 47.457H27.0317L21.8059 38.7422Z" fill="#D2D2D2"/>
<path fill-rule="evenodd" clip-rule="evenodd" d="M139.388 242.669C196.149 242.669 242.162 196.628 242.162 139.834C242.162 83.0405 196.149 37 139.388 37C82.6269 37 36.6133 83.0405 36.6133 139.834C36.6133 196.628 82.6269 242.669 139.388 242.669ZM139.388 201.536C173.445 201.536 201.054 173.912 201.054 139.835C201.054 105.759 173.445 78.1346 139.388 78.1346C105.332 78.1346 77.7239 105.759 77.7239 139.835C77.7239 173.912 105.332 201.536 139.388 201.536Z" fill="#848484"/>
</svg>
