<svg width="284" height="284" viewBox="0 0 284 284" fill="none" xmlns="http://www.w3.org/2000/svg">
<rect width="284" height="284" fill="white"/>
<path d="M183.022 127.645H166.133" stroke="#D2D2D2" stroke-linejoin="bevel"/>
<path d="M191.467 127.645L183.022 122.578V132.711L191.467 127.645Z" fill="#D2D2D2"/>
<path d="M240.444 127.645H257.333" stroke="#D2D2D2" stroke-linejoin="bevel"/>
<path d="M232 127.645L240.444 132.711V122.578L232 127.645Z" fill="#D2D2D2"/>
<path d="M270.837 126.361V124.895H271.57C272.737 124.895 273.675 124.651 274.384 124.162C275.109 123.658 275.472 122.877 275.472 121.821C275.472 120.907 275.149 120.158 274.502 119.575C273.855 118.976 273.075 118.677 272.161 118.677C270.711 118.677 269.647 119.331 268.969 120.639L267.527 119.883C268.552 118.117 270.128 117.234 272.256 117.234C273.643 117.234 274.801 117.636 275.732 118.44C276.677 119.228 277.15 120.324 277.15 121.727C277.15 122.688 276.875 123.508 276.323 124.186C275.787 124.864 275.093 125.321 274.242 125.557V125.605C275.235 125.809 276.048 126.282 276.677 127.023C277.307 127.764 277.623 128.678 277.623 129.766C277.623 131.311 277.103 132.54 276.063 133.454C275.022 134.369 273.746 134.826 272.232 134.826C271.018 134.826 269.947 134.534 269.017 133.951C268.103 133.352 267.409 132.501 266.936 131.397L268.544 130.806C268.828 131.594 269.3 132.217 269.963 132.674C270.625 133.131 271.381 133.36 272.232 133.36C273.241 133.36 274.109 133.037 274.833 132.39C275.558 131.728 275.921 130.854 275.921 129.766C275.921 128.584 275.504 127.725 274.668 127.189C273.832 126.637 272.8 126.361 271.57 126.361H270.837Z" fill="#161718"/>
<path d="M138.259 247.731V249.244H127.548V247.471L134.405 240.543C135.745 239.171 136.415 237.895 136.415 236.712C136.415 235.767 136.092 235.002 135.446 234.419C134.815 233.819 134.035 233.52 133.105 233.52C132.222 233.52 131.473 233.796 130.859 234.348C130.244 234.9 129.842 235.616 129.653 236.5L127.974 236.169C128.21 234.971 128.801 233.993 129.747 233.237C130.693 232.465 131.812 232.078 133.105 232.078C134.539 232.078 135.737 232.48 136.699 233.284C137.66 234.088 138.141 235.223 138.141 236.689C138.141 237.667 137.912 238.533 137.455 239.29C136.998 240.031 136.32 240.85 135.422 241.749L129.393 247.731H138.259Z" fill="#161718"/>
<path d="M32.7109 227.289V256H34.3998V227.289H32.7109Z" fill="#D2D2D2"/>
<path d="M230.311 227.289V256H232V227.289H230.311Z" fill="#D2D2D2"/>
<path d="M221.866 241.645H149.244" stroke="#D2D2D2" stroke-linejoin="bevel"/>
<path d="M230.311 241.645L221.866 246.711V236.578L230.311 241.645Z" fill="#D2D2D2"/>
<path d="M42.8438 241.645H115.466" stroke="#D2D2D2" stroke-linejoin="bevel"/>
<path d="M34.4004 241.645L42.8448 246.711V236.578L34.4004 241.645Z" fill="#D2D2D2"/>
<path d="M19.9626 119.348V136.088H18.2602V121.452L15.2337 124.029L14.1934 122.847L18.4494 119.348H19.9626Z" fill="#161718"/>
<path d="M32.7111 28H4V29.6889H32.7111V28Z" fill="#D2D2D2"/>
<path d="M32.7111 225.6H4V227.288H32.7111V225.6Z" fill="#D2D2D2"/>
<path d="M18.3564 217.155V144.533" stroke="#D2D2D2" stroke-linejoin="bevel"/>
<path d="M18.3557 225.601L13.2891 217.156H23.4224L18.3557 225.601Z" fill="#D2D2D2"/>
<path d="M18.3564 38.1328V110.755" stroke="#D2D2D2" stroke-linejoin="bevel"/>
<path d="M18.3557 29.6895L13.2891 38.1339H23.4224L18.3557 29.6895Z" fill="#D2D2D2"/>
<path fill-rule="evenodd" clip-rule="evenodd" d="M232 28H32.7109V227.289H232V28ZM192.144 67.8588H72.5711V187.432H192.144V67.8588Z" fill="#848484"/>
</svg>
