<svg width="284" height="284" viewBox="0 0 284 284" fill="none" xmlns="http://www.w3.org/2000/svg">
<rect width="284" height="284" fill="white"/>
<path d="M28.0526 121.141V136.926H26.4473V123.125L23.5933 125.555L22.6123 124.44L26.6256 121.141H28.0526Z" fill="#161718"/>
<path d="M40.0741 35H13V36.5926H40.0741V35Z" fill="#D2D2D2"/>
<path d="M40.0741 221.334H13V222.927H40.0741V221.334Z" fill="#D2D2D2"/>
<path d="M25.7412 215.76V148.871" stroke="#D2D2D2" stroke-linejoin="bevel"/>
<path d="M25.7407 221.334L20.9629 213.371H30.5184L25.7407 221.334Z" fill="#D2D2D2"/>
<path d="M25.7412 41.3711V108.26" stroke="#D2D2D2" stroke-linejoin="bevel"/>
<path d="M25.7407 36.5918L20.9629 44.5548H30.5184L25.7407 36.5918Z" fill="#D2D2D2"/>
<path d="M273.458 195.992V206.561H275.776V207.965H273.458V211.778H271.897V207.965H264.673V206.405L271.362 195.992H273.458ZM271.897 206.561V197.798H271.852L266.345 206.561H271.897Z" fill="#161718"/>
<path d="M255.074 184.703H228V186.296H255.074V184.703Z" fill="#D2D2D2"/>
<path d="M255.074 221.334H228V222.927H255.074V221.334Z" fill="#D2D2D2"/>
<path d="M240.741 221.334L235.963 213.371H245.518L240.741 221.334Z" fill="#D2D2D2"/>
<path d="M240.741 191.074V214.167" stroke="#D2D2D2" stroke-linejoin="bevel"/>
<path d="M240.741 186.297L235.963 194.26H245.518L240.741 186.297Z" fill="#D2D2D2"/>
<path d="M133.138 236.05V234.667H133.829C134.929 234.667 135.813 234.436 136.482 233.976C137.166 233.5 137.508 232.764 137.508 231.769C137.508 230.907 137.203 230.2 136.594 229.651C135.984 229.085 135.249 228.803 134.386 228.803C133.019 228.803 132.016 229.42 131.376 230.654L130.016 229.941C130.982 228.276 132.469 227.443 134.476 227.443C135.784 227.443 136.876 227.822 137.753 228.58C138.645 229.324 139.091 230.356 139.091 231.68C139.091 232.586 138.831 233.36 138.311 233.998C137.805 234.637 137.151 235.069 136.349 235.292V235.336C137.285 235.529 138.05 235.975 138.645 236.674C139.24 237.373 139.537 238.235 139.537 239.26C139.537 240.718 139.046 241.877 138.065 242.739C137.084 243.6 135.88 244.032 134.453 244.032C133.309 244.032 132.298 243.756 131.421 243.207C130.559 242.641 129.905 241.839 129.459 240.799L130.975 240.241C131.243 240.985 131.689 241.571 132.313 242.003C132.937 242.434 133.651 242.649 134.453 242.649C135.405 242.649 136.222 242.345 136.906 241.735C137.59 241.111 137.932 240.286 137.932 239.26C137.932 238.146 137.538 237.335 136.75 236.83C135.962 236.309 134.988 236.05 133.829 236.05H133.138Z" fill="#161718"/>
<path d="M228 250V222.926H226.407V250H228Z" fill="#D2D2D2"/>
<path d="M41.667 250V222.926H40.0744V250H41.667Z" fill="#D2D2D2"/>
<path d="M47.2412 237.26H114.13" stroke="#D2D2D2" stroke-linejoin="bevel"/>
<path d="M41.667 237.26L49.63 232.482V242.038L41.667 237.26Z" fill="#D2D2D2"/>
<path d="M221.629 237.26H154.74" stroke="#D2D2D2" stroke-linejoin="bevel"/>
<path d="M226.407 237.26L218.444 232.482V242.038L226.407 237.26Z" fill="#D2D2D2"/>
<path d="M196.936 133.907V135.334H186.836V133.661L193.302 127.129C194.566 125.835 195.197 124.631 195.197 123.517C195.197 122.625 194.893 121.904 194.283 121.354C193.689 120.789 192.953 120.507 192.076 120.507C191.244 120.507 190.537 120.767 189.957 121.287C189.378 121.807 188.999 122.483 188.82 123.316L187.237 123.004C187.46 121.874 188.018 120.952 188.909 120.239C189.801 119.511 190.857 119.146 192.076 119.146C193.429 119.146 194.558 119.526 195.465 120.284C196.372 121.042 196.825 122.112 196.825 123.494C196.825 124.416 196.61 125.233 196.178 125.947C195.748 126.646 195.108 127.418 194.261 128.266L188.575 133.907H196.936Z" fill="#161718"/>
<path d="M160.314 128.963H179.426" stroke="#D2D2D2" stroke-linejoin="bevel"/>
<path d="M154.74 128.963L162.703 124.186V133.741L154.74 128.963Z" fill="#D2D2D2"/>
<path d="M108.555 128.963H89.4443" stroke="#D2D2D2" stroke-linejoin="bevel"/>
<path d="M113.333 128.963L105.37 124.186V133.741L113.333 128.963Z" fill="#D2D2D2"/>
<path fill-rule="evenodd" clip-rule="evenodd" d="M40.0742 35H228V73.2225H152.835V184.704H228V222.926H40.0742V184.704H113.972V73.2225H40.0742V35Z" fill="#848484"/>
</svg>
