<svg width="20" height="20" viewBox="0 0 20 20" fill="none" xmlns="http://www.w3.org/2000/svg">
<path d="M19.0906 0H11.8179C11.3158 0 10.9088 0.407031 10.9088 0.909102C10.9088 1.41117 11.3158 1.8182 11.8179 1.8182H16.8959L7.53874 11.1754C7.1837 11.5304 7.1837 12.106 7.53874 12.461C7.7162 12.6385 7.94886 12.7273 8.18151 12.7273C8.41417 12.7273 8.64687 12.6386 8.82437 12.461L18.1816 3.10383V8.18184C18.1816 8.68391 18.5886 9.09094 19.0907 9.09094C19.5927 9.09094 19.9998 8.68391 19.9998 8.18184V0.909102C19.9997 0.407031 19.5927 0 19.0906 0Z" fill="#EDB021"/>
<path d="M15.4545 9.09088C14.9525 9.09088 14.5454 9.49791 14.5454 9.99999V18.1818H1.81816V5.45452H10C10.5021 5.45452 10.9091 5.04749 10.9091 4.54541C10.9091 4.04334 10.5021 3.63635 10 3.63635H0.909102C0.407031 3.63635 0 4.04338 0 4.54545V19.0909C0 19.593 0.407031 20 0.909102 20H15.4546C15.9566 20 16.3637 19.593 16.3637 19.0909V9.99999C16.3636 9.49791 15.9566 9.09088 15.4545 9.09088Z" fill="#EDB021"/>
</svg>
