<svg width="20" height="16" viewBox="0 0 20 16" fill="none" xmlns="http://www.w3.org/2000/svg">
<path fill-rule="evenodd" clip-rule="evenodd" d="M20 1H5.73244C5.38663 0.402199 4.74028 0 4 0C3.25972 0 2.61337 0.402199 2.26756 1H0V3H2.26756C2.61337 3.5978 3.25972 4 4 4C4.74028 4 5.38663 3.5978 5.73244 3H20V1ZM11.7324 9H20V7H11.7324C11.3866 6.4022 10.7403 6 10 6C9.25972 6 8.61337 6.4022 8.26756 7H0V9H8.26756C8.61337 9.5978 9.25972 10 10 10C10.7403 10 11.3866 9.5978 11.7324 9ZM17.7324 13H20V15H17.7324C17.3866 15.5978 16.7403 16 16 16C15.2597 16 14.6134 15.5978 14.2676 15H0V13H14.2676C14.6134 12.4022 15.2597 12 16 12C16.7403 12 17.3866 12.4022 17.7324 13Z" fill="#EDB021"/>
</svg>
