<svg width="20" height="20" viewBox="0 0 20 20" fill="none" xmlns="http://www.w3.org/2000/svg">
<path d="M5.89094 12.8681C5.89094 12.536 5.66047 12.3379 5.25383 12.3379C5.08778 12.3379 4.97532 12.3543 4.9165 12.37V13.4356C4.98615 13.4513 5.07177 13.4565 5.18978 13.4565C5.62322 13.4565 5.89094 13.2375 5.89094 12.8681Z" fill="#EDB021"/>
<path d="M8.40797 12.3477C8.22586 12.3477 8.10818 12.3634 8.03857 12.3797V14.7398C8.10822 14.7562 8.22068 14.7562 8.32235 14.7562C9.0611 14.7614 9.54291 14.3548 9.54291 13.4931C9.54814 12.7438 9.10909 12.3477 8.40797 12.3477Z" fill="#EDB021"/>
<path d="M13.085 0H5.05221C3.87869 0 2.92358 0.95578 2.92358 2.12863V9.99996H2.71567C2.24203 9.99996 1.85791 10.3837 1.85791 10.8578V16.0597C1.85791 16.5337 2.24199 16.9175 2.71567 16.9175H2.92358V17.8713C2.92358 19.0455 3.87869 20 5.05221 20H16.0126C17.1854 20 18.1406 19.0454 18.1406 17.8713V5.03791L13.085 0ZM4.10817 11.7965C4.35955 11.7541 4.71289 11.722 5.21071 11.722C5.7138 11.722 6.07237 11.8181 6.3133 12.011C6.54344 12.1927 6.69874 12.4928 6.69874 12.8459C6.69874 13.1989 6.58106 13.499 6.36693 13.7023C6.08842 13.9644 5.67655 14.0821 5.19474 14.0821C5.08751 14.0821 4.9914 14.0768 4.91623 14.0664V15.3563H4.10817V11.7965ZM16.0126 18.6964H5.05221C4.59782 18.6964 4.2278 18.3263 4.2278 17.8713V16.9175H14.4452C14.9189 16.9175 15.303 16.5337 15.303 16.0597V10.8578C15.303 10.3837 14.9189 9.99996 14.4452 9.99996H4.2278V2.12863C4.2278 1.67491 4.59786 1.30489 5.05221 1.30489L12.5973 1.29701V4.08595C12.5973 4.90057 13.2583 5.56216 14.0735 5.56216L16.8056 5.55432L16.8363 17.8713C16.8363 18.3263 16.467 18.6964 16.0126 18.6964ZM7.2198 15.34V11.7965C7.5195 11.7488 7.91014 11.722 8.32238 11.722C9.00749 11.722 9.45176 11.8449 9.79988 12.1071C10.1745 12.3856 10.4098 12.8295 10.4098 13.4669C10.4098 14.1573 10.1584 14.6339 9.81029 14.928C9.43044 15.2438 8.85223 15.3935 8.14583 15.3935C7.7228 15.3935 7.4231 15.3667 7.2198 15.34ZM13.0615 13.242V13.9056H11.7661V15.3563H10.9472V11.7488H13.1524V12.4176H11.7661V13.242H13.0615Z" fill="#EDB021"/>
</svg>
