<svg width="24" height="24" viewBox="0 0 24 24" fill="none" xmlns="http://www.w3.org/2000/svg">
<rect x="0.5" y="0.5" width="23" height="23" fill="#EFEFEF" stroke="#EFEFEF"/>
<g clip-path="url(#clip0)">
<path d="M12.0003 11.8501C13.5381 11.8501 14.7849 10.3359 14.7849 8.46803C14.7849 6.60016 14.3755 5.08594 12.0003 5.08594C9.62513 5.08594 9.21582 6.60016 9.21582 8.46803C9.21586 10.3359 10.4626 11.8501 12.0003 11.8501Z" fill="#D2D2D2"/>
<path d="M17.2527 16.8774C17.2011 13.6235 16.7762 12.6963 13.5242 12.1094C13.5242 12.1094 13.0664 12.6927 11.9995 12.6927C10.9325 12.6927 10.4748 12.1094 10.4748 12.1094C7.2583 12.6898 6.80742 13.6033 6.74816 16.7716C6.74334 17.0303 6.74111 17.0439 6.74023 17.0139C6.7404 17.0702 6.74065 17.1742 6.74065 17.3557C6.74065 17.3557 7.51489 18.9165 11.9995 18.9165C16.4841 18.9165 17.2584 17.3557 17.2584 17.3557C17.2584 17.2391 17.2585 17.158 17.2586 17.1029C17.2577 17.1214 17.2559 17.0854 17.2527 16.8774Z" fill="#D2D2D2"/>
<path d="M15.8639 11.2457C17.1129 11.2457 18.1254 10.0159 18.1254 8.49883C18.1254 6.98176 17.7929 5.75195 15.8639 5.75195C15.5394 5.75195 15.2602 5.78687 15.02 5.85204C15.4655 6.67342 15.5266 7.67108 15.5266 8.46744C15.5266 9.36913 15.2822 10.23 14.832 10.9428C15.1414 11.136 15.492 11.2457 15.8639 11.2457Z" fill="#D2D2D2"/>
<path d="M20.1301 15.3295C20.0882 12.6868 19.7431 11.9337 17.1019 11.457C17.1019 11.457 16.7301 11.9308 15.8636 11.9308C15.8277 11.9308 15.793 11.9297 15.7588 11.9282C16.3094 12.1764 16.8103 12.522 17.1791 13.0278C17.8168 13.9022 17.9634 15.0768 17.9937 16.8025C19.7706 16.4513 20.1348 15.7181 20.1348 15.7181C20.1348 15.6225 20.1348 15.557 20.1349 15.5122C20.1342 15.5279 20.1328 15.4997 20.1301 15.3295Z" fill="#D2D2D2"/>
<path d="M8.13545 11.2456C8.50733 11.2456 8.85784 11.1359 9.16735 10.9428C8.71722 10.23 8.47279 9.36913 8.47279 8.46744C8.47279 7.67104 8.53386 6.67338 8.97934 5.85204C8.73918 5.78687 8.46001 5.75195 8.13545 5.75195C6.20638 5.75195 5.87402 6.98176 5.87402 8.49883C5.87402 10.0158 6.88652 11.2456 8.13545 11.2456Z" fill="#D2D2D2"/>
<path d="M8.24032 11.9282C8.20621 11.9297 8.17146 11.9308 8.13555 11.9308C7.26898 11.9308 6.89719 11.457 6.89719 11.457C4.25609 11.9337 3.91091 12.6867 3.86908 15.3295C3.86635 15.4997 3.86497 15.5279 3.86426 15.5121C3.86434 15.5569 3.86443 15.6225 3.86443 15.718C3.86443 15.718 4.22864 16.4513 6.00543 16.8024C6.03582 15.0768 6.18234 13.9022 6.82011 13.0278C7.18893 12.5221 7.68973 12.1764 8.24032 11.9282Z" fill="#D2D2D2"/>
</g>
<defs>
<clipPath id="clip0">
<rect width="16.2712" height="16.2712" fill="white" transform="translate(3.86426 3.86523)"/>
</clipPath>
</defs>
</svg>
