<svg width="35" height="12" viewBox="0 0 35 12" fill="none" xmlns="http://www.w3.org/2000/svg">
<g clip-path="url(#clip0)">
<path d="M11.6717 5.20037V5.19894C11.6694 5.19714 11.6656 5.19714 11.663 5.19714C11.6605 5.19714 11.658 5.19553 11.656 5.19553C11.5187 5.16135 11.3762 5.14114 11.226 5.14114H8.3291L8.45063 4.82508C8.55674 4.55379 8.75415 4.3274 8.99556 4.2066C9.14824 4.13108 9.31485 4.08563 9.46606 4.08563H9.93622L11.3622 2.87891H8.48069C7.54509 2.87891 6.65967 3.55376 6.35197 4.43871V4.43479C6.34908 4.44175 6.34709 4.45 6.34492 4.45823C6.34275 4.46645 6.33821 4.47307 6.33585 4.48148V4.4874C6.30561 4.57705 6.28098 4.6701 6.26614 4.76443L5.30881 10.1502C5.28129 10.2527 5.27912 10.3539 5.27912 10.4578V10.4668C5.27912 10.8429 5.38579 11.1758 5.61235 11.4321C5.79545 11.6545 6.04737 11.8084 6.33585 11.8866V11.8877C6.33821 11.8877 6.34166 11.8877 6.34581 11.8888L6.35197 11.8913V11.8899C6.48725 11.9262 6.63124 11.9444 6.78047 11.9444H9.92227C10.5835 11.9444 11.226 11.6067 11.656 11.0956V11.0971C11.658 11.0946 11.6598 11.091 11.662 11.0887C11.6642 11.0863 11.6694 11.082 11.6717 11.0781V11.0749C11.9126 10.7825 12.0863 10.434 12.1519 10.0596L12.6977 6.93573C12.7198 6.82424 12.7298 6.7115 12.7298 6.60287C12.7292 6.24746 12.6149 5.91979 12.3942 5.65385C12.2114 5.43158 11.9599 5.27822 11.6717 5.20037ZM10.4368 7.32874L10.421 7.42196L9.99779 9.84848C9.94328 10.1366 9.77087 10.3846 9.53561 10.5462C9.37697 10.6559 9.19206 10.7256 8.99556 10.7384H8.37402C8.11594 10.7384 7.88721 10.6472 7.73779 10.4519C7.61536 10.3161 7.55542 10.12 7.55542 9.924V9.75757L7.9495 7.61632V7.66052L7.96489 7.49517L7.97667 7.42196L8.00909 7.23799C8.0857 6.77091 8.52614 6.37827 8.99556 6.34822H9.61875C9.89184 6.34822 10.1188 6.45416 10.2693 6.63616C10.3897 6.77557 10.4529 6.96366 10.4529 7.16141C10.4529 7.2158 10.4466 7.27272 10.4368 7.32874H10.4368ZM3.91323 10.7085C3.80728 10.7384 3.71601 10.7535 3.61041 10.7535H3.04846C2.58898 10.7535 2.2612 10.4186 2.26046 9.98288C2.25973 9.929 2.26444 9.87388 2.2744 9.81876L2.47254 8.70169C2.47254 8.64104 2.48774 8.58054 2.5026 8.52077L2.57812 8.06784C2.59316 8.0383 2.59316 8.02274 2.59316 7.99267L2.71631 7.29956C2.80685 6.7863 3.3067 6.36361 3.83807 6.36361H4.06499L5.47723 5.15688H2.74547C1.72892 5.15688 0.757486 5.98724 0.57493 6.99659L0.0296097 10.12C0.00933992 10.2289 -0.00117518 10.339 0.00010445 10.4437C0.00010445 11.3022 0.641394 11.9597 1.54582 11.9597H4.68655C4.83958 11.9597 4.9765 11.9444 5.12644 11.8992L3.94418 10.7384L3.91323 10.7085ZM24.1982 10.7085C24.1082 10.7384 24.0017 10.7535 23.8967 10.7535H23.3336C22.8743 10.7535 22.5482 10.4186 22.5456 9.98288C22.5456 9.929 22.5494 9.87388 22.5612 9.81876L22.7575 8.70169C22.7725 8.64104 22.7725 8.58054 22.7881 8.52077L22.8796 8.06784V7.99267L23.0158 7.29956C23.1074 6.7863 23.5935 6.36361 24.1223 6.36361H24.3503L25.7617 5.15688H23.0458C22.0132 5.15688 21.043 5.98724 20.8613 6.99659L20.3313 10.12C20.3099 10.2289 20.301 10.339 20.301 10.4437C20.2976 11.3022 20.9273 11.9597 21.8326 11.9597H24.9719C25.1247 11.9597 25.2763 11.9444 25.4123 11.8992L24.2453 10.7535L24.1982 10.7085ZM19.7532 5.50406L18.0839 6.92089C18.0839 6.92089 17.6442 9.6219 17.5087 9.99897C17.3568 10.3608 17.1147 10.6017 16.7488 10.7085C16.7488 10.7085 16.4889 10.7594 16.1812 10.7594C16.0496 10.7594 15.91 10.7501 15.7774 10.7232C15.3375 10.6323 15.1109 10.3608 15.0957 9.924L15.5499 7.23799C15.5894 7.00159 15.6102 6.7863 15.6102 6.59284C15.6115 6.03718 15.4485 5.66459 15.1109 5.47382L13.4272 6.89153C13.4272 6.89153 12.865 9.1849 12.8344 10.2248L12.8339 10.3213C12.8339 11.3022 13.2885 11.8419 14.1853 11.9444L16.3808 11.952L17.4778 11.9444C18.009 11.9294 18.4786 11.7488 18.8893 11.402L19.3289 11.9903L20.2385 6.93573C20.2505 6.84053 20.2572 6.74639 20.2572 6.65656C20.2572 6.17121 20.0864 5.78396 19.7532 5.50406Z" fill="#161718"/>
<path d="M30.1272 5.86944L27.3915 1.49106C27.385 1.48064 27.3966 1.4684 27.4076 1.47411L28.8781 2.23969L30.269 5.6898L30.1272 5.86944V5.86944ZM33.0367 4.31421L32.8124 2.46584L32.0323 3.45472L33.0367 4.31421Z" fill="#1C4562"/>
<path d="M27.9972 8.57499C27.9837 8.59219 28.0069 8.61397 28.0236 8.59968L30.5852 6.40308L30.2849 5.67383L27.9972 8.57499Z" fill="#1C4562"/>
<path d="M32.8127 2.45811L34.2696 1.919C34.2803 1.91502 34.2902 1.92662 34.2843 1.93638L33.0079 4.06676L32.8127 2.45811V2.45811ZM27.9853 0.0165408L30.5622 6.40888L33.0373 4.30957L28.0046 0.00300766C27.9949 -0.0052335 27.9806 0.00484557 27.9853 0.0165408Z" fill="#0086BE"/>
</g>
<defs>
<clipPath id="clip0">
<rect width="34.2857" height="12" fill="white"/>
</clipPath>
</defs>
</svg>
