<svg width="16" height="16" viewBox="0 0 16 16" fill="none" xmlns="http://www.w3.org/2000/svg">
<path d="M14.5713 14.2861C14.9309 14.2861 15.2425 14.1674 15.5075 13.9329L10.9744 9.39966C10.8657 9.47754 10.7602 9.55327 10.6607 9.62528C10.3214 9.87522 10.0461 10.0703 9.83468 10.21C9.62329 10.3501 9.34204 10.4929 8.99095 10.6386C8.63963 10.7846 8.31234 10.8573 8.00872 10.8573H7.99983H7.99094C7.68729 10.8573 7.36 10.7846 7.00871 10.6386C6.65742 10.4929 6.37617 10.3501 6.16498 10.21C5.95359 10.0703 5.67841 9.87525 5.339 9.62528C5.24442 9.55594 5.13953 9.47986 5.02612 9.39844L0.492188 13.9329C0.757085 14.1674 1.06893 14.2861 1.42855 14.2861H14.5713Z" fill="#161718"/>
<path d="M0.901882 6.54446C0.562678 6.31832 0.261876 6.05932 0 5.76758V12.6645L3.99542 8.6691C3.19611 8.11107 2.16624 7.40367 0.901882 6.54446Z" fill="#161718"/>
<path d="M15.1068 6.54446C13.8907 7.36759 12.8571 8.07621 12.0059 8.6707L15.9997 12.6647V5.76758C15.7436 6.05345 15.446 6.31227 15.1068 6.54446Z" fill="#161718"/>
<path d="M14.5712 1.71484H1.42848C0.969973 1.71484 0.617464 1.86967 0.370519 2.17902C0.123371 2.4885 0 2.87555 0 3.33972C0 3.71466 0.16372 4.12091 0.491014 4.55859C0.818309 4.99609 1.16658 5.33974 1.53564 5.58971C1.73797 5.73266 2.34811 6.15683 3.36608 6.86208C3.91559 7.24288 4.39348 7.5748 4.80414 7.86122C5.15418 8.10511 5.45606 8.31633 5.7053 8.49161C5.73391 8.51168 5.77891 8.54387 5.83863 8.58657C5.90298 8.63279 5.9844 8.69144 6.08485 8.76397C6.27829 8.90387 6.43899 9.01696 6.56698 9.10335C6.69479 9.18977 6.84965 9.2863 7.03133 9.39349C7.21285 9.50054 7.38407 9.58103 7.54477 9.63457C7.70549 9.68808 7.85428 9.71492 7.99116 9.71492H8.00005H8.00894C8.14579 9.71492 8.29461 9.68808 8.45536 9.63457C8.61603 9.58103 8.7871 9.50071 8.96877 9.39349C9.15027 9.2863 9.30493 9.18957 9.43315 9.10335C9.56114 9.01696 9.72184 8.9039 9.91531 8.76397C10.0156 8.69144 10.097 8.63276 10.1613 8.58671C10.2211 8.54384 10.266 8.51186 10.2948 8.49161C10.489 8.3565 10.7916 8.14616 11.1984 7.86369C11.9386 7.34938 13.0287 6.59239 14.4734 5.58971C14.9079 5.28623 15.2709 4.92001 15.5626 4.49157C15.8538 4.06313 15.9998 3.61371 15.9998 3.14347C15.9998 2.75058 15.8583 2.4144 15.5758 2.1344C15.293 1.85474 14.9581 1.71484 14.5712 1.71484Z" fill="#161718"/>
</svg>
