<svg width="60" height="60" viewBox="0 0 60 60" fill="none" xmlns="http://www.w3.org/2000/svg">
<path d="M58.9713 21.8939L56.0368 18.9594C54.666 17.5886 52.4357 17.5888 51.0648 18.9594L44.8838 25.1405V5.27344C44.8838 2.36566 42.5181 0 39.6104 0H5.27441C2.36664 0 0.000976562 2.36566 0.000976562 5.27344V54.7266C0.000976562 57.6343 2.36664 60 5.27441 60H39.6104C42.5181 60 44.8838 57.6343 44.8838 54.7266V40.7774L58.9713 26.8658C60.342 25.4951 60.342 23.2646 58.9713 21.8939ZM37.9479 42.6857L32.6602 45.1534L35.1255 39.8708L48.2475 26.7487L51.1488 29.6498L37.9479 42.6857ZM41.3682 54.7266C41.3682 55.6958 40.5796 56.4844 39.6104 56.4844H5.27441C4.30516 56.4844 3.5166 55.6958 3.5166 54.7266V5.27344C3.5166 4.30418 4.30516 3.51562 5.27441 3.51562H39.6104C40.5796 3.51562 41.3682 4.30418 41.3682 5.27344V28.6561C31.6206 38.4036 32.2572 37.7033 32.0705 38.1033L27.4301 48.0471C27.1176 48.7171 27.2574 49.5108 27.78 50.0334C28.3027 50.5562 29.0968 50.6959 29.7664 50.3834L39.7102 45.7429C40.0748 45.5727 40.1348 45.467 41.3682 44.2489V54.7266ZM53.6501 27.1796L50.7333 24.2629L53.5509 21.4453L56.4844 24.3807L53.6501 27.1796Z" fill="#EDB021"/>
<path d="M9.37598 14.8828H35.626C36.5968 14.8828 37.3838 14.0958 37.3838 13.125C37.3838 12.1542 36.5968 11.3672 35.626 11.3672H9.37598C8.4052 11.3672 7.61816 12.1542 7.61816 13.125C7.61816 14.0958 8.4052 14.8828 9.37598 14.8828Z" fill="#EDB021"/>
<path d="M9.37598 24.2578H30.001C30.9718 24.2578 31.7588 23.4708 31.7588 22.5C31.7588 21.5292 30.9718 20.7422 30.001 20.7422H9.37598C8.4052 20.7422 7.61816 21.5292 7.61816 22.5C7.61816 23.4708 8.4052 24.2578 9.37598 24.2578Z" fill="#EDB021"/>
<path d="M24.376 30.1172H9.37598C8.4052 30.1172 7.61816 30.9042 7.61816 31.875C7.61816 32.8458 8.4052 33.6328 9.37598 33.6328H24.376C25.3468 33.6328 26.1338 32.8458 26.1338 31.875C26.1338 30.9042 25.3468 30.1172 24.376 30.1172Z" fill="#EDB021"/>
</svg>
