<svg width="60" height="60" viewBox="0 0 60 60" fill="none" xmlns="http://www.w3.org/2000/svg">
<path d="M59.8723 28.3435L54.56 15.1798C54.2918 14.515 53.6468 14.0798 52.93 14.0798H37.4933V10.1758C37.4933 9.205 36.7063 8.41797 35.7355 8.41797H1.75781C0.787031 8.41797 0 9.205 0 10.1758V45.889C0 46.8598 0.787031 47.6468 1.75781 47.6468H6.92273C8.00227 49.9686 10.3556 51.5829 13.0802 51.5829C15.8047 51.5829 18.1581 49.9686 19.2376 47.6468H35.7356H40.7626C41.8421 49.9686 44.1955 51.5829 46.92 51.5829C49.6445 51.5829 51.9977 49.9686 53.0773 47.6468H58.2422C59.213 47.6468 60 46.8598 60 45.889V29.0013C60 28.7758 59.9565 28.5525 59.8723 28.3435ZM51.7437 17.5954L55.6372 27.2434H37.4933V17.5954H51.7437ZM3.51562 11.9336H33.9777V44.1312H19.8349C19.5001 40.699 16.5988 38.0076 13.0801 38.0076C9.56145 38.0076 6.66012 40.699 6.32531 44.1312H3.51562V11.9336ZM13.0801 48.0673C11.2759 48.0673 9.80801 46.5995 9.80801 44.7952C9.80801 42.991 11.2759 41.5232 13.0801 41.5232C14.8843 41.5232 16.3521 42.991 16.3521 44.7952C16.3522 46.5995 14.8843 48.0673 13.0801 48.0673ZM46.9199 48.0673C45.1157 48.0673 43.6478 46.5995 43.6478 44.7952C43.6478 42.991 45.1155 41.5232 46.9199 41.5232C48.7241 41.5232 50.1919 42.991 50.1919 44.7952C50.1919 46.5995 48.7241 48.0673 46.9199 48.0673ZM53.6746 44.1312C53.3398 40.699 50.4384 38.0076 46.9199 38.0076C43.4012 38.0076 40.4999 40.699 40.1651 44.1312H37.4933V30.7591H56.4844V44.1312H53.6746Z" fill="#EDB021"/>
</svg>
