<svg width="60" height="60" viewBox="0 0 60 60" fill="none" xmlns="http://www.w3.org/2000/svg">
<g clip-path="url(#clip0_1:44877)">
<path d="M59.4853 19.1036C60.1713 18.4176 60.1718 17.304 59.4853 16.6175L44.7129 1.84657C44.0263 1.16021 42.9136 1.16021 42.227 1.84657L37.6071 6.46599L31.0973 8.45806L24.6935 6.3747L20.0187 1.70032C19.3321 1.01396 18.2191 1.01396 17.5328 1.70032L0.514688 18.7167C-0.171328 19.4027 -0.171797 20.5163 0.514688 21.2028L5.15145 25.8391L6.85488 32.3235C6.21961 32.763 5.99625 33.0877 4.88355 34.1719C1.65188 37.4036 3.81199 42.9102 8.32148 43.1542C8.46352 45.8406 10.6095 47.9814 13.2946 48.1268C13.4366 50.8134 15.5827 52.9542 18.2677 53.0995C18.3364 54.3998 18.8752 55.6124 19.8028 56.5401C21.857 58.594 25.1993 58.5942 27.2536 56.5401L28.5775 55.2163C28.6034 55.1904 28.6277 55.1634 28.653 55.137L30.7938 57.2775C32.8479 59.3318 36.1915 59.3328 38.2466 57.2777C39.0918 56.4327 39.613 55.351 39.7516 54.1824C39.7744 54.1826 39.797 54.184 39.8196 54.184C41.169 54.1839 42.5188 53.6703 43.5462 52.6432C44.3715 51.818 44.8881 50.767 45.041 49.6298C45.0934 49.6313 45.1458 49.6335 45.1982 49.6335C46.5476 49.6334 47.8972 49.1198 48.9245 48.0927C49.7344 47.283 50.2481 46.2561 50.4116 45.1432C50.4987 45.1475 50.5857 45.1498 50.6729 45.1498C52.0223 45.1498 53.3721 44.6361 54.3995 43.6089C56.4591 41.5493 56.4594 38.2162 54.3995 36.1563L49.5016 31.2589L54.6628 23.9259L59.4853 19.1036ZM6.73066 22.4466L4.24359 19.9598L18.7757 5.42911L21.2627 7.91595L6.73066 22.4466ZM9.84844 39.1363C9.16477 39.8198 8.05277 39.8198 7.36957 39.1363C6.68461 38.4516 6.68449 37.343 7.36957 36.6582L8.6107 35.4172C9.70758 34.3203 11.6029 35.0989 11.6029 36.6562C11.6029 37.7633 10.727 38.1288 9.84844 39.1363ZM14.8214 44.1088C14.138 44.7923 13.0261 44.7923 12.3427 44.1088C11.6577 43.4241 11.6576 42.3156 12.3427 41.6308L17.3073 36.6665C17.9909 35.9832 19.1026 35.9829 19.7863 36.6664C20.471 37.3513 20.4713 38.4596 19.7863 39.1445L14.8214 44.1088ZM19.7945 49.0816C19.1111 49.765 17.9992 49.7649 17.3157 49.0815C16.6308 48.3967 16.6307 47.2883 17.3157 46.6034L21.0394 42.8802C21.7228 42.1968 22.8348 42.1968 23.5182 42.8802C24.2031 43.5651 24.2031 44.6735 23.5182 45.3583H23.5181L19.7945 49.0816ZM26.0914 52.7303L24.7676 54.0541C24.084 54.7376 22.9721 54.7375 22.2886 54.0541C21.6038 53.3692 21.6036 52.2609 22.2887 51.576L23.6126 50.2522C24.296 49.569 25.408 49.5685 26.0914 50.2522C26.7764 50.9368 26.7766 52.0454 26.0914 52.7303ZM51.9135 38.6423C52.5991 39.3277 52.599 40.4374 51.9135 41.1227C51.2295 41.8067 50.1163 41.8069 49.4323 41.1227L45.3002 36.9911C44.5052 36.1963 43.3889 36.2536 42.7202 36.9221C42.0339 37.6086 42.034 38.7215 42.7204 39.408L46.4387 43.1261C47.124 43.8114 47.1244 44.9209 46.4386 45.6065C45.7547 46.2906 44.6414 46.2906 43.9575 45.6065C42.6347 44.2771 42.8565 44.5034 40.2415 41.8863C39.5549 41.1999 38.4418 41.2 37.7555 41.8864C37.7549 41.887 37.7544 41.8875 37.7538 41.8883C37.7536 41.8885 37.7534 41.8886 37.7532 41.8888C37.0669 42.5753 37.067 43.6884 37.7535 44.3749L41.1055 47.7265C41.7498 48.421 41.7259 49.4917 41.0604 50.1572C40.3761 50.8413 39.2631 50.8415 38.5791 50.1572L35.2746 46.853C34.588 46.1667 33.4752 46.1668 32.7886 46.8531C32.1022 47.5396 32.1023 48.6525 32.7887 49.3392L32.8669 49.4173C32.868 49.4185 32.869 49.4198 32.8702 49.4209L35.7611 52.3115C36.4464 52.9968 36.4468 54.1061 35.7609 54.792C35.0769 55.4759 33.964 55.4763 33.2797 54.7919L30.1172 51.6296C30.1184 51.5834 30.1206 51.5375 30.1206 51.4912C30.1206 50.0839 29.5725 48.7609 28.5775 47.7659C28.083 47.2716 27.5136 46.8975 26.9059 46.6411C28.4943 43.7371 27.0238 39.9674 23.6905 39.0462C24.0673 37.3316 23.5898 35.498 22.2721 34.1802C20.218 32.1264 16.8756 32.1266 14.8214 34.1802L14.6098 34.3919C13.8257 32.7467 12.2014 31.554 10.2491 31.407L8.68723 25.4618L24.2297 9.92091L27.8393 11.0952C22.2117 16.7288 21.2405 17.7011 21.1041 17.8376C21.1044 17.8374 21.1041 17.8376 21.1032 17.8384C21.0953 17.8464 21.0902 17.8515 21.0874 17.8543C21.0878 17.8539 21.0881 17.8536 21.0885 17.8532C21.0874 17.8543 21.0866 17.8551 21.0855 17.8561C19.0037 19.9374 19.003 23.3072 21.0854 25.3891C23.1623 27.4661 26.5419 27.4662 28.6188 25.3892L33.6391 20.3693L51.9135 38.6423ZM46.9782 28.7357L34.8819 16.6407C34.1953 15.9544 33.0824 15.9544 32.396 16.6407L26.1328 22.9033C25.4265 23.6093 24.2775 23.6095 23.5711 22.9032C22.8634 22.1955 22.8632 21.0501 23.5712 20.3423C23.5716 20.3419 23.5718 20.3417 23.5721 20.3413C23.5734 20.34 23.5764 20.3371 23.5819 20.3316C23.5816 20.3317 23.5815 20.332 23.5813 20.3322C23.5823 20.3311 23.583 20.3304 23.5835 20.33C23.5834 20.3301 23.5832 20.3302 23.583 20.3304C23.5832 20.3302 23.5835 20.33 23.5837 20.3297C23.5841 20.3294 23.5842 20.3293 23.5839 20.3296C23.697 20.2161 24.7146 19.1949 32.0371 11.8469L38.0445 10.0087L51.0243 22.9872L46.9782 28.7357ZM41.0263 8.0186L43.4699 5.57524L55.7563 17.8605L53.3127 20.3038L41.0263 8.0186Z" fill="#EDB021"/>
<path d="M23.5818 20.332C23.5799 20.3339 23.5768 20.337 23.5727 20.3412C23.5726 20.3413 23.5724 20.3415 23.5723 20.3416C23.5737 20.3401 23.5785 20.3353 23.5818 20.332Z" fill="#EDB021"/>
<path d="M21.0889 17.852L21.0991 17.8418C21.0958 17.8451 21.0918 17.8491 21.0889 17.852Z" fill="#EDB021"/>
</g>
<defs>
<clipPath id="clip0_1:44877">
<rect width="60" height="60" fill="white"/>
</clipPath>
</defs>
</svg>
