<?xml version="1.0" encoding="utf-8"?><svg xmlns="http://www.w3.org/2000/svg" xmlns:xlink="http://www.w3.org/1999/xlink"><symbol viewBox="0 0 12 12" id="add" xmlns="http://www.w3.org/2000/svg"><g clip-path="url(#aaa)"><path d="M6.55 5.45V.778a.549.549 0 10-1.1 0V5.45H.778a.55.55 0 100 1.1H5.45v4.672a.549.549 0 101.1 0V6.55h4.673a.548.548 0 00.55-.55.549.549 0 00-.55-.55H6.55z"/></g><defs><clipPath id="aaa"><path d="M0 0h12v12H0z"/></clipPath></defs></symbol><symbol viewBox="0 0 20 20" id="chat" xmlns="http://www.w3.org/2000/svg"><g clip-path="url(#aba)"><path d="M13.83 1.234H2.261A2.264 2.264 0 000 3.496v10.137c0 .48.543.75.926.477l3.222-2.299c.27-.192.588-.294.92-.294h7.085a2.264 2.264 0 002.262-2.262V1.82a.586.586 0 00-.586-.586zm-2.847 7.098h-6.77a.586.586 0 110-1.171h6.77a.586.586 0 010 1.171zm0-2.734h-6.77a.586.586 0 110-1.172h6.77a.586.586 0 010 1.172z"/><path d="M20 8.041v10.137c0 .477-.54.752-.926.477l-3.222-2.298a1.577 1.577 0 00-.92-.295H7.847A2.264 2.264 0 015.585 13.8v-1.11h6.569a3.437 3.437 0 003.433-3.435V5.78h2.151A2.264 2.264 0 0120 8.041z"/></g><defs><clipPath id="aba"><path d="M0 0h20v20H0z"/></clipPath></defs></symbol><symbol viewBox="0 0 12 12" id="chevron-down" xmlns="http://www.w3.org/2000/svg"><g clip-path="url(#aca)"><path d="M1.41 2.5L6 7.08l4.59-4.58L12 3.91l-6 6-6-6L1.41 2.5z"/></g><defs><clipPath id="aca"><path transform="rotate(90 6 6)" d="M0 0h12v12H0z"/></clipPath></defs></symbol><symbol viewBox="0 0 12 8" id="chevron-down2" xmlns="http://www.w3.org/2000/svg"><path d="M1.41.5L6 5.08 10.59.5 12 1.91l-6 6-6-6L1.41.5z"/></symbol><symbol viewBox="0 0 14 14" id="chevron-top" xmlns="http://www.w3.org/2000/svg"><g clip-path="url(#aea)"><path d="M1.645 11.084L7 5.741l5.355 5.343L14 9.439l-7-7-7 7 1.645 1.645z"/></g><defs><clipPath id="aea"><path transform="matrix(0 -1 -1 0 14 14)" d="M0 0h14v14H0z"/></clipPath></defs></symbol><symbol viewBox="0 0 30 30" id="company-stab7" xmlns="http://www.w3.org/2000/svg"><circle cx="15" cy="15" r="15"/><path d="M17.07 9.473a3.634 3.634 0 011.69 2.7 2.933 2.933 0 10-1.691-2.7zm-1.922 6.005a2.933 2.933 0 100-5.866 2.933 2.933 0 000 5.867zm1.244.2h-2.49a3.76 3.76 0 00-3.755 3.756v3.044l.008.048.21.066c1.976.617 3.693.823 5.106.823 2.76 0 4.36-.787 4.459-.837l.196-.1h.02v-3.044a3.759 3.759 0 00-3.754-3.756zm4.853-3.028h-2.47a3.615 3.615 0 01-1.116 2.518 4.463 4.463 0 013.188 4.27v.939c2.438-.09 3.843-.78 3.936-.827l.196-.1H25v-3.044a3.76 3.76 0 00-3.755-3.756zM10 12.45a2.92 2.92 0 001.56-.452 3.63 3.63 0 011.364-2.315c.003-.055.008-.11.008-.165A2.933 2.933 0 1010 12.451zm2.634 2.718a3.617 3.617 0 01-1.115-2.504c-.092-.006-.182-.014-.276-.014H8.756A3.76 3.76 0 005 16.406v3.044l.008.047.21.066c1.585.495 3 .723 4.229.795v-.92a4.463 4.463 0 013.188-4.27z"/></symbol><symbol viewBox="0 0 12 12" id="cross-sm" xmlns="http://www.w3.org/2000/svg"><path d="M7.1 6.01l4.672-4.673a.776.776 0 10-1.1-1.1L6 4.91 1.327.238A.777.777 0 10.228 1.337L4.901 6.01.228 10.682a.776.776 0 101.1 1.1L6 7.109l4.673 4.673a.775.775 0 001.099 0 .776.776 0 000-1.1L7.099 6.01z"/></symbol><symbol viewBox="0 0 40 40" id="fb-star" xmlns="http://www.w3.org/2000/svg"><path d="M40 15.455l-14.534-.956L19.992.748l-5.474 13.751L0 15.455l11.136 9.455L7.48 39.253l12.511-7.908 12.51 7.908L28.85 24.91 40 15.455z"/></symbol><symbol viewBox="0 0 20 20" id="modalMetalRadio-1" xmlns="http://www.w3.org/2000/svg"><path d="M0 20V0h4v16h16v4H0z"/></symbol><symbol viewBox="0 0 18 20" id="modalMetalRadio-10" xmlns="http://www.w3.org/2000/svg"><path d="M0 4.762v9.841L8.889 20l8.889-5.397V4.762L8.888 0 0 4.762z"/></symbol><symbol viewBox="0 0 15 20" id="modalMetalRadio-2" xmlns="http://www.w3.org/2000/svg"><path d="M15 0v20H.263V0z"/></symbol><symbol viewBox="0 0 20 20" id="modalMetalRadio-3" xmlns="http://www.w3.org/2000/svg"><path d="M18.5 10a8.5 8.5 0 11-17 0 8.5 8.5 0 0117 0z"/></symbol><symbol viewBox="0 0 20 20" id="modalMetalRadio-4" xmlns="http://www.w3.org/2000/svg"><path d="M20 10c0 5.523-4.477 10-10 10S0 15.523 0 10 4.477 0 10 0s10 4.477 10 10z"/></symbol><symbol viewBox="0 0 20 20" id="modalMetalRadio-5" xmlns="http://www.w3.org/2000/svg"><path fill-rule="evenodd" clip-rule="evenodd" d="M16 16.128V3.871H4v12.258h12zm-16 0V0h20v19.999H0v-3.87z"/></symbol><symbol viewBox="0 0 20 20" id="modalMetalRadio-6" xmlns="http://www.w3.org/2000/svg"><path d="M0 0h20v20H0z"/></symbol><symbol viewBox="0 0 20 17" id="modalMetalRadio-7" xmlns="http://www.w3.org/2000/svg"><path d="M4 0H0v16.667h20V0h-4v12.667H4V0z"/></symbol><symbol viewBox="0 0 20 15" id="modalMetalRadio-8" xmlns="http://www.w3.org/2000/svg"><path d="M0 0h20v14.667H0z"/></symbol><symbol viewBox="0 0 20 20" id="modalMetalRadio-9" xmlns="http://www.w3.org/2000/svg"><path d="M20 0H0v4.286h7.857v11.428H0V20h20v-4.286h-7.857V4.286H20V0z"/></symbol><symbol viewBox="0 0 12 12" id="next" xmlns="http://www.w3.org/2000/svg"><g clip-path="url(#asa)"><path d="M2.5 10.59L7.08 6 2.5 1.41 3.91 0l6 6-6 6-1.41-1.41z"/></g><defs><clipPath id="asa"><path d="M0 0h12v12H0z"/></clipPath></defs></symbol><symbol viewBox="0 0 20 20" id="outsource" xmlns="http://www.w3.org/2000/svg"><path d="M19.09 0h-7.272a.91.91 0 100 1.818h5.078l-9.357 9.357a.909.909 0 101.285 1.286l9.358-9.357v5.078a.91.91 0 101.818 0V.909A.91.91 0 0019.09 0z"/><path d="M15.454 9.09a.91.91 0 00-.909.91v8.182H1.818V5.455H10a.91.91 0 100-1.819H.91a.91.91 0 00-.91.91V19.09a.91.91 0 00.91.909h14.545a.91.91 0 00.909-.91V10a.91.91 0 00-.91-.91z"/></symbol><symbol viewBox="0 0 12 12" id="plus" xmlns="http://www.w3.org/2000/svg"><g clip-path="url(#aua)"><path d="M6.55 5.45V.778a.549.549 0 10-1.1 0V5.45H.778a.55.55 0 100 1.1H5.45v4.672a.549.549 0 101.1 0V6.55h4.673a.548.548 0 00.55-.55.549.549 0 00-.55-.55H6.55z"/></g><defs><clipPath id="aua"><path d="M0 0h12v12H0z"/></clipPath></defs></symbol><symbol viewBox="0 0 12 12" id="prev" xmlns="http://www.w3.org/2000/svg"><g clip-path="url(#ava)"><path d="M9.5 1.41L4.92 6l4.58 4.59L8.09 12l-6-6 6-6L9.5 1.41z"/></g><defs><clipPath id="ava"><path transform="rotate(-180 6 6)" d="M0 0h12v12H0z"/></clipPath></defs></symbol><symbol viewBox="0 0 20 20" id="soc-inst" xmlns="http://www.w3.org/2000/svg"><g clip-path="url(#awa)"><path d="M14.701.8H6.098A5.304 5.304 0 00.8 6.098v8.603A5.304 5.304 0 006.098 20h8.603A5.305 5.305 0 0020 14.7V6.098A5.304 5.304 0 0014.7.8zm3.595 13.9a3.6 3.6 0 01-3.595 3.595H6.098A3.599 3.599 0 012.503 14.7V6.098a3.599 3.599 0 013.595-3.595h8.603a3.6 3.6 0 013.595 3.595v8.603z"/><path d="M10.4 5.453A4.953 4.953 0 005.451 10.4a4.953 4.953 0 004.947 4.947 4.953 4.953 0 004.948-4.947A4.953 4.953 0 0010.4 5.453zm0 8.19A3.247 3.247 0 017.155 10.4 3.247 3.247 0 0110.4 7.156a3.247 3.247 0 013.243 3.244 3.247 3.247 0 01-3.244 3.243zm5.155-9.635a1.254 1.254 0 00-1.25 1.25c0 .328.135.65.367.883.232.232.555.366.883.366.33 0 .65-.134.883-.366.233-.233.366-.555.366-.883 0-.33-.133-.652-.366-.884a1.254 1.254 0 00-.883-.366z"/></g><defs><clipPath id="awa"><path transform="translate(.8 .8)" d="M0 0h19.2v19.2H0z"/></clipPath></defs></symbol><symbol viewBox="0 0 20 20" id="soc-vk" xmlns="http://www.w3.org/2000/svg"><g clip-path="url(#axa)"><path d="M19.829 14.694c-.052-.087-.371-.78-1.907-2.206-1.608-1.493-1.392-1.25.545-3.832 1.18-1.572 1.65-2.532 1.503-2.943-.14-.39-1.008-.288-1.008-.288l-2.885.017s-.213-.029-.373.066c-.155.094-.255.31-.255.31s-.457 1.217-1.066 2.251c-1.286 2.183-1.8 2.298-2.01 2.163-.489-.316-.366-1.27-.366-1.947 0-2.116.32-2.998-.626-3.226-.314-.075-.545-.126-1.348-.134-1.03-.01-1.902.003-2.395.245-.329.16-.582.52-.427.54.19.025.623.116.852.428.296.402.286 1.307.286 1.307s.17 2.49-.398 2.8c-.39.212-.924-.221-2.07-2.202-.587-1.014-1.03-2.136-1.03-2.136s-.086-.21-.238-.32c-.185-.136-.444-.18-.444-.18l-2.744.017s-.411.012-.563.19c-.134.16-.01.49-.01.49S3 11.127 5.432 13.661c2.23 2.322 4.762 2.17 4.762 2.17h1.148s.346-.04.523-.23c.163-.175.157-.504.157-.504s-.023-1.54.692-1.767c.705-.223 1.61 1.489 2.569 2.147.725.498 1.275.39 1.275.39l2.565-.037s1.342-.082.706-1.137z"/></g><defs><clipPath id="axa"><path transform="translate(.8 .8)" d="M0 0h19.2v19.2H0z"/></clipPath></defs></symbol><symbol viewBox="0 0 576 512" id="soc-yt" xmlns="http://www.w3.org/2000/svg"><path d="M549.655 124.083c-6.281-23.65-24.787-42.276-48.284-48.597C458.781 64 288 64 288 64S117.22 64 74.629 75.486c-23.497 6.322-42.003 24.947-48.284 48.597-11.412 42.867-11.412 132.305-11.412 132.305s0 89.438 11.412 132.305c6.281 23.65 24.787 41.5 48.284 47.821C117.22 448 288 448 288 448s170.78 0 213.371-11.486c23.497-6.321 42.003-24.171 48.284-47.821 11.412-42.867 11.412-132.305 11.412-132.305s0-89.438-11.412-132.305zm-317.51 213.508V175.185l142.739 81.205-142.739 81.201z"/></symbol><symbol viewBox="0 0 20 20" id="tabs-list" xmlns="http://www.w3.org/2000/svg"><g clip-path="url(#aza)"><path d="M-2.5 12.857h5.714V7.143H-2.5v5.714zm0 7.143h5.714v-5.714H-2.5V20zm0-14.286h5.714V0H-2.5v5.714zm7.143 7.143h17.143V7.143H4.643v5.714zm0 7.143h17.143v-5.714H4.643V20zm0-20v5.714h17.143V0H4.643z"/></g><defs><clipPath id="aza"><path d="M0 0h20v20H0z"/></clipPath></defs></symbol><symbol viewBox="0 0 20 20" id="tabs-pen" xmlns="http://www.w3.org/2000/svg"><g clip-path="url(#baa)"><path d="M19.898.1c-.87-.865-7.218 4.05-10.831 7.647-.876.872-1.496 1.599-1.925 2.21.59.181 1.143.513 1.624.992.206.205.399.437.574.69.269.388.457.797.568 1.218.632-.429 1.39-1.063 2.308-1.976C15.829 7.285 20.767.966 19.898.101zM3.066 11.901c-3.453 2.007-.358 4.713-2.785 7.14 1.752 1.752 4.528.852 6.072-.691 1.432-1.432 2.581-3.479 1.27-5.385-1.113-1.614-2.87-2.044-4.557-1.064z"/></g><defs><clipPath id="baa"><path d="M0 0h20v20H0z"/></clipPath></defs></symbol><symbol viewBox="0 0 20 20" id="tabs-pic" xmlns="http://www.w3.org/2000/svg"><path d="M18.73 2.221H1.27A1.27 1.27 0 000 3.491v13.016c0 .701.569 1.27 1.27 1.27h17.46a1.27 1.27 0 001.27-1.27V3.49a1.27 1.27 0 00-1.27-1.27zm0 1.27v9.235l-2.502-2.275a.952.952 0 00-1.314.031l-2.533 2.533L7.387 7.05a.952.952 0 00-1.452-.01L1.27 12.46V3.49h17.46zm-5.397 3.333a1.746 1.746 0 113.492 0 1.746 1.746 0 01-3.492 0z"/></symbol><symbol viewBox="0 0 20 20" id="tabs-star" xmlns="http://www.w3.org/2000/svg"><path d="M20 7.727l-7.267-.477L9.996.374 7.259 7.25 0 7.727l5.568 4.728-1.827 7.171 6.255-3.954 6.255 3.954-1.827-7.171L20 7.727z"/></symbol><symbol viewBox="0 0 16 16" id="tabs-stat" xmlns="http://www.w3.org/2000/svg"><path d="M9.52 1.389H6.46a.567.567 0 00-.566.566V14.04c0 .313.253.567.566.567h3.06a.567.567 0 00.567-.567V1.955a.567.567 0 00-.567-.566zm5.914 7.047h-3.06a.567.567 0 00-.567.566v5.042c0 .313.253.567.566.567h3.06a.567.567 0 00.567-.567V9.002a.567.567 0 00-.566-.566zM3.627 5.904H.567A.567.567 0 000 6.471v7.566c0 .313.254.566.567.566h3.06a.567.567 0 00.567-.566V6.47a.567.567 0 00-.567-.567z"/></symbol><symbol viewBox="0 0 16 16" id="tabs-tarifs" xmlns="http://www.w3.org/2000/svg"><path d="M12.445 1.334h-8.89v13.333h8.89V1.334zM1.778 3.111H0v9.778h1.778V3.111zm14.222 0h-1.778v9.778H16V3.111z"/></symbol><symbol viewBox="0 0 20 20" id="tabs-user" xmlns="http://www.w3.org/2000/svg"><path d="M10 0a5.28 5.28 0 00-5.273 5.273A5.28 5.28 0 0010 10.547a5.28 5.28 0 005.273-5.274A5.28 5.28 0 0010 0zm8.69 15.573a8.464 8.464 0 00-7.056-3.776H8.366a8.464 8.464 0 00-7.057 3.776l-.098.148V20h17.578v-4.279l-.098-.148z"/></symbol><symbol viewBox="0 0 16 16" id="tabs-users" xmlns="http://www.w3.org/2000/svg"><path d="M8 7.852c1.512 0 2.738-1.49 2.738-3.326C10.738 2.689 10.335 1.2 8 1.2c-2.336 0-2.738 1.49-2.738 3.326 0 1.837 1.226 3.326 2.738 3.326zm5.165 4.943c-.05-3.2-.468-4.111-3.666-4.689 0 0-.45.574-1.5.574-1.048 0-1.499-.574-1.499-.574-3.162.571-3.606 1.47-3.664 4.585-.005.254-.007.268-.008.238v.336S3.59 14.8 8 14.8s5.171-1.535 5.171-1.535v-.248c0 .018-.002-.017-.006-.222zM11.8 7.258c1.228 0 2.224-1.21 2.224-2.701 0-1.492-.327-2.702-2.224-2.702-.319 0-.593.035-.83.099.439.808.499 1.789.499 2.572a4.56 4.56 0 01-.683 2.434c.304.19.649.298 1.014.298z"/><path d="M15.995 11.273c-.041-2.599-.38-3.34-2.978-3.808 0 0-.366.466-1.218.466a1.72 1.72 0 01-.103-.003c.542.244 1.034.584 1.397 1.081.627.86.771 2.015.8 3.712C15.642 12.376 16 11.655 16 11.655v-.203c0 .016-.002-.012-.004-.18zM4.2 7.258c.366 0 .71-.108 1.015-.298a4.56 4.56 0 01-.683-2.434c0-.783.06-1.764.498-2.572a3.17 3.17 0 00-.83-.099c-1.897 0-2.223 1.21-2.223 2.702 0 1.491.995 2.7 2.223 2.7zm.103.67a2.264 2.264 0 01-.103.003c-.852 0-1.218-.466-1.218-.466C.385 7.934.046 8.674.005 11.273a1.578 1.578 0 01-.005.18v.202s.358.72 2.105 1.066c.03-1.697.174-2.852.802-3.712.362-.497.855-.837 1.396-1.08z"/></symbol><symbol viewBox="0 0 20 20" id="tabs-warehouse" xmlns="http://www.w3.org/2000/svg"><g clip-path="url(#bha)"><path d="M16.485 8.216H3.517v1.188h12.968V8.216zm0 2.359H3.517v1.188h12.968v-1.188zm0 2.36H3.517v1.187h12.968v-1.187zm0 2.36H3.517v1.188h12.968v-1.188zm0-9.439H3.517v1.188h12.968V5.856z"/><path d="M10 0L0 2.907v13.576h2.344V4.684h15.312v11.799h2.343V2.907L10 0zm10 17.654H.001V20h20v-2.346z"/></g><defs><clipPath id="bha"><path d="M0 0h20v20H0z"/></clipPath></defs></symbol><symbol viewBox="0 0 10 10" id="tooltip" xmlns="http://www.w3.org/2000/svg"><path d="M9.878.122a.417.417 0 00-.453-.091L.26 3.78a.417.417 0 00.083.796l4.3.781.782 4.3a.417.417 0 00.795.083L9.97.574a.417.417 0 00-.091-.452z"/></symbol><symbol viewBox="0 0 20 20" id="top-nav-dd-1" xmlns="http://www.w3.org/2000/svg"><path d="M10 0a5.28 5.28 0 00-5.273 5.273A5.28 5.28 0 0010 10.547a5.28 5.28 0 005.273-5.274A5.28 5.28 0 0010 0zm8.69 15.573a8.464 8.464 0 00-7.056-3.776H8.366a8.464 8.464 0 00-7.057 3.776l-.098.148V20h17.578v-4.279l-.098-.148z"/></symbol><symbol viewBox="0 0 20 20" id="top-nav-dd-2" xmlns="http://www.w3.org/2000/svg"><path d="M10 9.814c1.89 0 3.422-1.861 3.422-4.157C13.422 3.361 12.92 1.5 10 1.5S6.577 3.361 6.577 5.657c0 2.296 1.533 4.157 3.423 4.157zm6.457 6.179c-.064-4-.586-5.139-4.583-5.86 0 0-.563.717-1.874.717-1.312 0-1.874-.717-1.874-.717-3.954.713-4.508 1.836-4.581 5.73-.006.319-.009.335-.01.298v.42S4.488 18.5 10 18.5s6.464-1.919 6.464-1.919v-.31a2.505 2.505 0 01-.007-.278zM14.75 9.071c1.535 0 2.78-1.512 2.78-3.376 0-1.865-.41-3.377-2.78-3.377-.4 0-.742.043-1.038.123.548 1.01.623 2.236.623 3.215 0 1.108-.3 2.167-.854 3.043.38.237.812.372 1.269.372z"/><path d="M19.993 14.09c-.051-3.248-.476-4.174-3.722-4.76 0 0-.457.582-1.522.582-.044 0-.087 0-.129-.003.677.305 1.293.73 1.746 1.352.784 1.075.964 2.518 1.001 4.64C19.551 15.468 20 14.567 20 14.567v-.253c0 .019-.002-.016-.006-.225zM5.25 9.073a2.39 2.39 0 001.269-.372c-.554-.876-.854-1.935-.854-3.043 0-.979.075-2.205.623-3.215A3.963 3.963 0 005.25 2.32c-2.37 0-2.78 1.512-2.78 3.377 0 1.864 1.245 3.376 2.78 3.376zm.129.837a2.815 2.815 0 01-.129.002c-1.065 0-1.522-.582-1.522-.582-3.246.586-3.67 1.512-3.722 4.76-.003.21-.005.244-.006.225v.253s.448.9 2.632 1.332c.037-2.12.217-3.564 1.001-4.64.454-.62 1.07-1.046 1.746-1.35z"/></symbol><symbol viewBox="0 0 20 20" id="top-nav-dd-3" xmlns="http://www.w3.org/2000/svg"><g clip-path="url(#bla)"><path d="M16.485 8.215H3.517v1.188h12.968V8.215zm0 2.361H3.517v1.188h12.968v-1.188zm0 2.359H3.517v1.188h12.968v-1.188zm0 2.36H3.517v1.188h12.968v-1.188zm0-9.44H3.517v1.188h12.968V5.855z"/><path d="M10 0L0 2.907v13.576h2.344V4.684h15.312v11.799h2.343V2.907L10 0zm10 17.654H.001V20h20v-2.346z"/></g><defs><clipPath id="bla"><path d="M0 0h20v20H0z"/></clipPath></defs></symbol><symbol viewBox="0 0 20 20" id="top-nav-dd-4" xmlns="http://www.w3.org/2000/svg"><g clip-path="url(#bma)"><path d="M-2.5 12.857h5.714V7.143H-2.5v5.714zm0 7.143h5.714v-5.714H-2.5V20zm0-14.286h5.714V0H-2.5v5.714zm7.143 7.143h17.143V7.143H4.643v5.714zm0 7.143h17.143v-5.714H4.643V20zm0-20v5.714h17.143V0H4.643z"/></g><defs><clipPath id="bma"><path d="M0 0h20v20H0z"/></clipPath></defs></symbol><symbol viewBox="0 0 20 20" id="top-nav-dd-5" xmlns="http://www.w3.org/2000/svg"><path d="M15.555 1.666H4.445v16.667h11.11V1.666zM2.222 3.889H0V16.11h2.222V3.889zm17.778 0h-2.223V16.11H20V3.889z"/></symbol><symbol viewBox="0 0 30 30" id="topNav-img-1" xmlns="http://www.w3.org/2000/svg"><path d="M5.893 24.375V21.65L.758 26.786h2.724a2.413 2.413 0 002.411-2.411z"/><path d="M9.107 24.374v-4.821a3.486 3.486 0 013.482-3.482h3.482v-2.143H0v2.143h3.482a3.486 3.486 0 013.482 3.482v4.821a3.486 3.486 0 01-3.482 3.482H0V30h16.071v-2.143H12.59a3.486 3.486 0 01-3.482-3.482zM29.243 0H13.615L.758 12.857h15.628L29.243 0zm-12.1 13.615v1.7l5.782-5.783L30 2.457v-1.7L17.143 13.616zm0 13.921v1.66l9.79-10.28L30 15.85v-1.7l-2.3 2.3-10.557 11.086z"/><path d="M29.243 13.393h-2.725a.515.515 0 01-.134-.027.515.515 0 01-.134.027 3.486 3.486 0 01-3.298-2.373l-5.966 5.965a.54.54 0 01-.379.158H12.59a2.414 2.414 0 00-2.41 2.41v4.822a2.413 2.413 0 002.41 2.41h3.789l10.555-11.083 2.31-2.31zM12.702 24.996a.536.536 0 01-.916-.38.536.536 0 11.916.38zm2.15-2.254l-.536.561a.536.536 0 01-.775-.74l.536-.56a.536.536 0 01.775.739zm2.143-2.245l-.536.561a.536.536 0 01-.775-.74l.536-.56a.536.536 0 11.775.74zm2.143-2.245l-.536.562a.536.536 0 11-.775-.74l.535-.562a.536.536 0 01.776.74zm2.143-2.245l-.536.562a.536.536 0 11-.775-.74l.535-.561a.536.536 0 11.776.74zm1.6-1.677a.53.53 0 01-.761 0 .509.509 0 01-.155-.375.536.536 0 11.916.375z"/></symbol><symbol viewBox="0 0 36 36" id="topNav-img-2" xmlns="http://www.w3.org/2000/svg"><g clip-path="url(#bpa)"><path d="M12.162 26.357h1.98v-2.572h-3.285a4.478 4.478 0 011.305 2.572zm-4.448-2.572a3.214 3.214 0 100 6.429 3.214 3.214 0 000-6.429zm0 5.143a1.929 1.929 0 110-3.857 1.929 1.929 0 010 3.857z"/><path d="M7.714 26.357a.643.643 0 100 1.286.643.643 0 000-1.286zm-6.428-2.572v1.929a.645.645 0 00.643.643h1.337a4.48 4.48 0 011.305-2.572H1.286zm22.5-17.357a.645.645 0 00-.643-.643H.643A.645.645 0 000 6.428v16.071h23.786V6.428zm-3.857 17.357h-4.5v2.572h4.5v-2.572zm15.904-7.014l-4.43-4.989a.646.646 0 00-.481-.212h-1.993V18a.645.645 0 00.643.643H36v-1.44c0-.16-.06-.313-.167-.43zm-7.547 7.014a3.214 3.214 0 100 6.429 3.214 3.214 0 000-6.429zm0 5.143a1.929 1.929 0 110-3.857 1.929 1.929 0 010 3.857z"/><path d="M27.643 17.999V11.57H25.07V22.5h3.215a4.502 4.502 0 014.448 3.857h2.623a.645.645 0 00.643-.643v-5.786H29.57A1.934 1.934 0 0127.643 18zm-6.429 5.786v2.572h2.623a4.48 4.48 0 011.305-2.572h-3.928zm7.071 2.572a.643.643 0 100 1.286.643.643 0 000-1.286z"/></g><defs><clipPath id="bpa"><path d="M0 0h36v36H0z"/></clipPath></defs></symbol><symbol viewBox="0 0 20 20" id="user" xmlns="http://www.w3.org/2000/svg"><path d="M10 0a5.28 5.28 0 00-5.273 5.273A5.28 5.28 0 0010 10.547a5.28 5.28 0 005.273-5.274A5.28 5.28 0 0010 0zm8.69 15.573a8.464 8.464 0 00-7.056-3.776H8.366a8.464 8.464 0 00-7.057 3.776l-.098.148V20h17.578v-4.279l-.098-.148z"/></symbol><symbol viewBox="0 0 30 30" id="user-stab2" xmlns="http://www.w3.org/2000/svg"><path d="M15 0C6.72 0 0 6.72 0 15c0 8.28 6.72 15 15 15 8.28 0 15-6.72 15-15 0-8.28-6.72-15-15-15zm0 4.5c2.49 0 4.5 2.01 4.5 4.5s-2.01 4.5-4.5 4.5-4.5-2.01-4.5-4.5 2.01-4.5 4.5-4.5zm0 21.3a10.8 10.8 0 01-9-4.83c.045-2.985 6-4.62 9-4.62 2.985 0 8.955 1.635 9 4.62a10.8 10.8 0 01-9 4.83z"/></symbol></svg>