<?xml version="1.0" encoding="utf-8"?><svg xmlns="http://www.w3.org/2000/svg" xmlns:xlink="http://www.w3.org/1999/xlink"><symbol viewBox="0 0 20 20" id="chat" xmlns="http://www.w3.org/2000/svg"><g clip-path="url(#aa)"><path d="M13.83 1.234H2.261A2.264 2.264 0 000 3.496v10.137c0 .48.543.75.926.477l3.222-2.299c.27-.192.588-.294.92-.294h7.085a2.264 2.264 0 002.262-2.262V1.82a.586.586 0 00-.586-.586zm-2.847 7.098h-6.77a.586.586 0 110-1.171h6.77a.586.586 0 010 1.171zm0-2.734h-6.77a.586.586 0 110-1.172h6.77a.586.586 0 010 1.172z"/><path d="M20 8.041v10.137c0 .477-.54.752-.926.477l-3.222-2.298a1.577 1.577 0 00-.92-.295H7.847A2.264 2.264 0 015.585 13.8v-1.11h6.569a3.437 3.437 0 003.433-3.435V5.78h2.151A2.264 2.264 0 0120 8.041z"/></g><defs><clipPath id="aa"><path d="M0 0h20v20H0z"/></clipPath></defs></symbol><symbol viewBox="0 0 12 12" id="chevron-down" xmlns="http://www.w3.org/2000/svg"><g clip-path="url(#ba)"><path d="M1.41 2.5L6 7.08l4.59-4.58L12 3.91l-6 6-6-6L1.41 2.5z"/></g><defs><clipPath id="ba"><path transform="rotate(90 6 6)" d="M0 0h12v12H0z"/></clipPath></defs></symbol><symbol viewBox="0 0 12 12" id="next" xmlns="http://www.w3.org/2000/svg"><g clip-path="url(#ca)"><path d="M2.5 10.59L7.08 6 2.5 1.41 3.91 0l6 6-6 6-1.41-1.41z"/></g><defs><clipPath id="ca"><path d="M0 0h12v12H0z"/></clipPath></defs></symbol><symbol viewBox="0 0 12 12" id="prev" xmlns="http://www.w3.org/2000/svg"><g clip-path="url(#da)"><path d="M9.5 1.41L4.92 6l4.58 4.59L8.09 12l-6-6 6-6L9.5 1.41z"/></g><defs><clipPath id="da"><path transform="rotate(-180 6 6)" d="M0 0h12v12H0z"/></clipPath></defs></symbol></svg>