<svg width="60" height="60" viewBox="0 0 60 60" fill="none" xmlns="http://www.w3.org/2000/svg">
<g clip-path="url(#clip0)">
<path d="M46.5234 13.2422H50.5078V21.9923H46.5234V13.2422Z" fill="#EDB021"/>
<path d="M56.7577 56.4844V25.508H46.5234V32.1291H49.9219V37.1292H46.5234V56.4844H43.0078V13.9137L38.0077 11.4139V5.74219H31.7578V0H28.2422V5.74219H21.9923V11.4134L16.9922 13.9137V56.4844H13.4766V43.2811H10.0781V38.2809H13.4766V33.2812H10.0781V28.2811H13.4766V19.492H3.24234V56.4844H0V60H60V56.4844H56.7577ZM28.0078 37.1288H24.4922V32.1286H28.0078V37.1288ZM28.0078 22.1288V27.1289H24.4922V22.1292H28.0078V22.1288ZM24.4922 42.1289H28.0078V47.1291H24.4922V42.1289ZM35.5078 47.1291H31.9922V42.1289H35.5078V47.1291ZM31.9922 37.1288V32.1286H35.5078V37.1288H31.9922ZM35.5078 27.1289H31.9922V22.1292H35.5078V27.1289Z" fill="#EDB021"/>
</g>
<defs>
<clipPath id="clip0">
<rect width="60" height="60" fill="white"/>
</clipPath>
</defs>
</svg>
