<svg width="20" height="20" viewBox="0 0 20 20" fill="none" xmlns="http://www.w3.org/2000/svg">
<g clip-path="url(#clip0)">
<path d="M19.8979 0.10039C19.0283 -0.765136 12.6798 4.15061 9.06674 7.74693C8.1909 8.61863 7.571 9.34551 7.1416 9.95676C7.7313 10.1385 8.28453 10.47 8.76561 10.949C8.97176 11.1542 9.16484 11.3862 9.33956 11.6385C9.6086 12.0272 9.79717 12.4356 9.90847 12.8571C10.5402 12.4283 11.2981 11.794 12.2156 10.881C15.8287 7.28486 20.7675 0.965915 19.8979 0.10039Z" fill="#EDB021"/>
<path d="M3.06556 11.9014C-0.387312 13.9082 2.70801 16.6144 0.28125 19.041C2.03311 20.793 4.80949 19.893 6.35266 18.3497C7.78494 16.9177 8.93449 14.8712 7.62213 12.9655C6.51007 11.3508 4.75243 10.9211 3.06556 11.9014Z" fill="#EDB021"/>
</g>
<defs>
<clipPath id="clip0">
<rect width="20" height="20" fill="white"/>
</clipPath>
</defs>
</svg>
