<svg width="36" height="36" viewBox="0 0 36 36" fill="none" xmlns="http://www.w3.org/2000/svg">
<g clip-path="url(#clip0)">
<path d="M12.1624 26.3566H14.1424V23.7852H10.8574C11.564 24.475 12.0228 25.379 12.1624 26.3566Z" fill="#979797"/>
<path d="M7.71427 23.7852C5.93909 23.7852 4.5 25.2242 4.5 26.9994C4.5 28.7746 5.93909 30.2137 7.71427 30.2137C9.48945 30.2137 10.9285 28.7746 10.9285 26.9994C10.9279 25.2245 9.48923 23.7858 7.71427 23.7852ZM7.71427 28.928C6.64917 28.928 5.78566 28.0646 5.78566 26.9994C5.78566 25.9343 6.6491 25.0708 7.71427 25.0708C8.77943 25.0708 9.64287 25.9343 9.64287 26.9994C9.6397 28.0633 8.77809 28.9249 7.71427 28.928Z" fill="#979797"/>
<path d="M7.71416 26.3574C7.35915 26.3574 7.07129 26.6452 7.07129 27.0003C7.07129 27.3554 7.35908 27.6431 7.71416 27.6431C8.06923 27.6431 8.35702 27.3554 8.35702 27.0003C8.35597 26.6457 8.06881 26.3585 7.71416 26.3574Z" fill="#979797"/>
<path d="M1.28613 23.7852V25.7138C1.28719 26.0683 1.57434 26.3556 1.929 26.3566H3.26613C3.40577 25.3791 3.86456 24.4751 4.57113 23.7852H1.28613V23.7852Z" fill="#979797"/>
<path d="M23.7857 6.42802C23.7847 6.07344 23.4975 5.78621 23.1429 5.78516H0.642867C0.288211 5.78614 0.00105469 6.07337 0 6.42802V22.4994H23.7857V6.42802Z" fill="#979797"/>
<path d="M19.9287 23.7852H15.4287V26.3566H19.9287V23.7852Z" fill="#979797"/>
<path d="M35.833 16.7711L31.4037 11.7825C31.2804 11.6465 31.1051 11.5694 30.9216 11.5703H28.9287V17.9989C28.9298 18.3535 29.2169 18.6408 29.5716 18.6418H36.0001V17.2018C35.9992 17.0425 35.9397 16.8893 35.833 16.7711Z" fill="#979797"/>
<path d="M28.2856 23.7852C26.5104 23.7852 25.0713 25.2242 25.0713 26.9994C25.0713 28.7746 26.5104 30.2137 28.2856 30.2137C30.0607 30.2137 31.4998 28.7746 31.4998 26.9994C31.4992 25.2245 30.0605 23.7858 28.2856 23.7852ZM28.2856 28.928C27.2205 28.928 26.357 28.0646 26.357 26.9994C26.357 25.9343 27.2204 25.0708 28.2856 25.0708C29.3507 25.0708 30.2142 25.9343 30.2142 26.9994C30.211 28.0633 29.3494 28.9249 28.2856 28.928Z" fill="#979797"/>
<path d="M27.6427 17.9989V11.5703H25.0713V22.4989H28.2856C30.5202 22.5023 32.4141 24.1444 32.7342 26.356H35.357C35.7116 26.355 35.9988 26.0678 35.9999 25.7132V19.9274H29.5713C28.5075 19.9244 27.6458 19.0627 27.6427 17.9989Z" fill="#979797"/>
<path d="M21.2139 23.7852V26.3566H23.8367C23.9764 25.379 24.4352 24.475 25.1417 23.7852H21.2139Z" fill="#979797"/>
<path d="M28.2854 26.3574C27.9304 26.3574 27.6426 26.6452 27.6426 27.0003C27.6426 27.3554 27.9304 27.6431 28.2854 27.6431C28.6405 27.6431 28.9283 27.3554 28.9283 27.0003C28.9273 26.6457 28.64 26.3585 28.2854 26.3574Z" fill="#979797"/>
</g>
<defs>
<clipPath id="clip0">
<rect width="36" height="36" fill="white"/>
</clipPath>
</defs>
</svg>
