<svg width="30" height="30" viewBox="0 0 30 30" fill="none" xmlns="http://www.w3.org/2000/svg">
<path d="M5.89314 24.375V21.6504L0.757812 26.7857H3.48242C4.81326 26.7843 5.89174 25.7058 5.89314 24.375Z" fill="#979797"/>
<path d="M9.10717 24.3742V19.5527C9.1094 17.6305 10.6671 16.0728 12.5893 16.0706H16.0715V13.9277H0V16.0706H3.48217C5.40439 16.0728 6.96211 17.6305 6.96434 19.5527V24.3742C6.96211 26.2964 5.40439 27.8541 3.48217 27.8564H0V29.9992H16.0714V27.8564H12.5893C10.6671 27.8541 9.1094 26.2964 9.10717 24.3742Z" fill="#979797"/>
<path d="M29.2428 0H13.615L0.757812 12.8572H16.3857L29.2428 0Z" fill="#979797"/>
<path d="M17.1426 13.615V15.3142L22.9246 9.53227L29.9997 2.45709V0.757812L17.1426 13.615Z" fill="#979797"/>
<path d="M17.1426 27.5358V29.1965L26.9328 18.9166L29.9997 15.8497V14.1504L27.6999 16.4503L17.1426 27.5358Z" fill="#979797"/>
<path d="M29.2426 13.3926H26.518C26.4724 13.3896 26.4273 13.3805 26.3841 13.3656C26.3408 13.3805 26.2958 13.3896 26.2501 13.3926C24.7558 13.3902 23.4293 12.4356 22.9522 11.0195L16.9862 16.9855C16.8855 17.0858 16.7493 17.1422 16.6073 17.1426H12.5894C11.2587 17.1441 10.1802 18.2226 10.1787 19.5534V24.3748C10.1802 25.7056 11.2587 26.7841 12.5894 26.7855H16.3776L26.9334 15.7019L29.2426 13.3926ZM12.702 24.9961C12.5487 25.1506 12.3172 25.1971 12.1162 25.1136C11.9151 25.0302 11.7846 24.8334 11.7859 24.6157C11.7859 24.3199 12.0257 24.08 12.3216 24.08C12.6174 24.08 12.8573 24.3198 12.8573 24.6157C12.8588 24.7582 12.8028 24.8953 12.702 24.9961ZM14.8522 22.742L14.3165 23.3034C14.1122 23.5175 13.773 23.5254 13.5589 23.3212C13.3448 23.1169 13.3369 22.7777 13.5411 22.5636L14.0768 22.0023C14.209 21.8638 14.405 21.8063 14.591 21.8515C14.777 21.8967 14.9248 22.0377 14.9786 22.2214C15.0326 22.4051 14.9843 22.6035 14.8522 22.742ZM16.995 20.4971L16.4593 21.0585C16.2551 21.2726 15.9159 21.2805 15.7018 21.0763C15.4877 20.872 15.4797 20.5328 15.6839 20.3187L16.2197 19.7574C16.4239 19.5433 16.7631 19.5353 16.9772 19.7396C17.1913 19.9439 17.1993 20.283 16.995 20.4971ZM19.1379 18.2523L18.6021 18.8136C18.3979 19.0277 18.0587 19.0357 17.8446 18.8314C17.6305 18.6272 17.6225 18.288 17.8268 18.0739L18.3625 17.5125C18.5667 17.2984 18.9059 17.2905 19.12 17.4947C19.3342 17.699 19.3422 18.0382 19.1379 18.2523ZM21.2807 16.0074L20.745 16.5687C20.6129 16.7072 20.4169 16.7647 20.2309 16.7195C20.0448 16.6743 19.8971 16.5333 19.8432 16.3496C19.7894 16.1659 19.8376 15.9674 19.9697 15.8289L20.5054 15.2676C20.7097 15.0535 21.0489 15.0455 21.263 15.2498C21.477 15.4541 21.485 15.7933 21.2807 16.0074ZM22.8805 14.3301C22.7806 14.4329 22.6435 14.4907 22.5002 14.4907C22.3569 14.4907 22.2198 14.4328 22.1199 14.3301C22.0183 14.2321 21.962 14.0962 21.9645 13.955C21.9632 13.7374 22.0938 13.5406 22.2948 13.4571C22.4959 13.3737 22.7274 13.4201 22.8807 13.5747C22.9793 13.6769 23.0349 13.813 23.036 13.955C23.0383 14.0962 22.9821 14.2321 22.8805 14.3301Z" fill="#979797"/>
</svg>
