<svg width="14" height="10" viewBox="0 0 14 10" fill="none" xmlns="http://www.w3.org/2000/svg">
<path fill-rule="evenodd" clip-rule="evenodd" d="M5.78215 4.91304L6.65006 5.75811C6.67943 5.78672 6.69601 5.82599 6.69601 5.86708C6.69601 5.90817 6.67943 5.94744 6.65006 5.97604L3.45423 9.08771C3.42456 9.11646 3.38636 9.13092 3.34802 9.13092C3.30982 9.13092 3.27146 9.11647 3.24194 9.08771L0.0461183 5.97604C0.0167459 5.94744 0 5.90817 0 5.86708C0 5.82599 0.0166033 5.78672 0.0461183 5.75811L0.914019 4.91304C0.97321 4.85537 1.06757 4.85551 1.12662 4.91334L2.5871 6.34538V0.152176C2.5871 0.0681787 2.65528 0 2.73928 0H3.95674C4.04074 0 4.10891 0.0681787 4.10891 0.152176V6.34538L5.5694 4.91334C5.62845 4.85537 5.72296 4.85521 5.78215 4.91304ZM8.21799 4.21788L7.35009 3.3728C7.32072 3.3442 7.30414 3.30493 7.30414 3.26384C7.30414 3.22275 7.32072 3.18348 7.35009 3.15487L10.5459 0.043211C10.5756 0.0144629 10.6138 0 10.6521 0C10.6903 0 10.7287 0.0144451 10.7582 0.043211L13.954 3.15488C13.9834 3.18348 14.0001 3.22275 14.0001 3.26384C14.0001 3.30493 13.9835 3.3442 13.954 3.3728L13.0861 4.21788C13.0269 4.27555 12.9326 4.27541 12.8735 4.21758L11.4131 2.78554L11.413 8.97874C11.413 9.06274 11.3449 9.13092 11.2609 9.13092H10.0434C9.95941 9.13092 9.89124 9.06274 9.89124 8.97874L9.89124 2.78554L8.43075 4.21758C8.3717 4.27555 8.27719 4.27571 8.21799 4.21788Z" fill="#161718"/>
</svg>
