<svg width="28" height="27" viewBox="0 0 28 27" fill="none" xmlns="http://www.w3.org/2000/svg">
<g clip-path="url(#clip0)">
<path d="M26.482 24.6211L20.1353 18.0202C21.7671 16.0804 22.6612 13.6396 22.6612 11.0987C22.6612 5.16205 17.8312 0.332031 11.8946 0.332031C5.95794 0.332031 1.12793 5.16205 1.12793 11.0987C1.12793 17.0353 5.95794 21.8653 11.8946 21.8653C14.1233 21.8653 16.2471 21.1931 18.0629 19.917L24.4579 26.568C24.7252 26.8456 25.0847 26.9987 25.4699 26.9987C25.8346 26.9987 26.1805 26.8597 26.4431 26.6069C27.0011 26.07 27.0189 25.1796 26.482 24.6211ZM11.8946 3.14072C16.2827 3.14072 19.8525 6.71057 19.8525 11.0987C19.8525 15.4868 16.2827 19.0567 11.8946 19.0567C7.50647 19.0567 3.93662 15.4868 3.93662 11.0987C3.93662 6.71057 7.50647 3.14072 11.8946 3.14072Z" fill="#EDB021"/>
</g>
<defs>
<clipPath id="clip0">
<rect width="26.6667" height="26.6667" fill="white" transform="translate(0.666992 0.332031)"/>
</clipPath>
</defs>
</svg>
