<?xml version="1.0" encoding="utf-8"?><svg xmlns="http://www.w3.org/2000/svg" xmlns:xlink="http://www.w3.org/1999/xlink"><symbol viewBox="0 0 20 20" id="chat" xmlns="http://www.w3.org/2000/svg"><g clip-path="url(#aa)"><path d="M13.83 1.234H2.261A2.264 2.264 0 000 3.496v10.137c0 .48.543.75.926.477l3.222-2.299c.27-.192.588-.294.92-.294h7.085a2.264 2.264 0 002.262-2.262V1.82a.586.586 0 00-.586-.586zm-2.847 7.098h-6.77a.586.586 0 110-1.171h6.77a.586.586 0 010 1.171zm0-2.734h-6.77a.586.586 0 110-1.172h6.77a.586.586 0 010 1.172z"/><path d="M20 8.041v10.137c0 .477-.54.752-.926.477l-3.222-2.298a1.577 1.577 0 00-.92-.295H7.847A2.264 2.264 0 015.585 13.8v-1.11h6.569a3.437 3.437 0 003.433-3.435V5.78h2.151A2.264 2.264 0 0120 8.041z"/></g><defs><clipPath id="aa"><path d="M0 0h20v20H0z"/></clipPath></defs></symbol><symbol viewBox="0 0 12 12" id="chevron-down" xmlns="http://www.w3.org/2000/svg"><g clip-path="url(#ba)"><path d="M1.41 2.5L6 7.08l4.59-4.58L12 3.91l-6 6-6-6L1.41 2.5z"/></g><defs><clipPath id="ba"><path transform="rotate(90 6 6)" d="M0 0h12v12H0z"/></clipPath></defs></symbol><symbol viewBox="0 0 12 12" id="next" xmlns="http://www.w3.org/2000/svg"><g clip-path="url(#ca)"><path d="M2.5 10.59L7.08 6 2.5 1.41 3.91 0l6 6-6 6-1.41-1.41z"/></g><defs><clipPath id="ca"><path d="M0 0h12v12H0z"/></clipPath></defs></symbol><symbol viewBox="0 0 12 12" id="prev" xmlns="http://www.w3.org/2000/svg"><g clip-path="url(#da)"><path d="M9.5 1.41L4.92 6l4.58 4.59L8.09 12l-6-6 6-6L9.5 1.41z"/></g><defs><clipPath id="da"><path transform="rotate(-180 6 6)" d="M0 0h12v12H0z"/></clipPath></defs></symbol><symbol viewBox="0 0 10 10" id="tooltip" xmlns="http://www.w3.org/2000/svg"><path d="M9.878.122a.417.417 0 00-.453-.091L.26 3.78a.417.417 0 00.083.796l4.3.781.782 4.3a.417.417 0 00.795.083L9.97.574a.417.417 0 00-.091-.452z"/></symbol><symbol viewBox="0 0 30 30" id="topNav-img-1" xmlns="http://www.w3.org/2000/svg"><path d="M5.893 24.375V21.65L.758 26.786h2.724a2.413 2.413 0 002.411-2.411z"/><path d="M9.107 24.374v-4.821a3.486 3.486 0 013.482-3.482h3.482v-2.143H0v2.143h3.482a3.486 3.486 0 013.482 3.482v4.821a3.486 3.486 0 01-3.482 3.482H0V30h16.071v-2.143H12.59a3.486 3.486 0 01-3.482-3.482zM29.243 0H13.615L.758 12.857h15.628L29.243 0zm-12.1 13.615v1.7l5.782-5.783L30 2.457v-1.7L17.143 13.616zm0 13.921v1.66l9.79-10.28L30 15.85v-1.7l-2.3 2.3-10.557 11.086z"/><path d="M29.243 13.393h-2.725a.515.515 0 01-.134-.027.515.515 0 01-.134.027 3.486 3.486 0 01-3.298-2.373l-5.966 5.965a.54.54 0 01-.379.158H12.59a2.414 2.414 0 00-2.41 2.41v4.822a2.413 2.413 0 002.41 2.41h3.789l10.555-11.083 2.31-2.31zM12.702 24.996a.536.536 0 01-.916-.38.536.536 0 11.916.38zm2.15-2.254l-.536.561a.536.536 0 01-.775-.74l.536-.56a.536.536 0 01.775.739zm2.143-2.245l-.536.561a.536.536 0 01-.775-.74l.536-.56a.536.536 0 11.775.74zm2.143-2.245l-.536.562a.536.536 0 11-.775-.74l.535-.562a.536.536 0 01.776.74zm2.143-2.245l-.536.562a.536.536 0 11-.775-.74l.535-.561a.536.536 0 11.776.74zm1.6-1.677a.53.53 0 01-.761 0 .509.509 0 01-.155-.375.536.536 0 11.916.375z"/></symbol><symbol viewBox="0 0 36 36" id="topNav-img-2" xmlns="http://www.w3.org/2000/svg"><g clip-path="url(#ga)"><path d="M12.162 26.357h1.98v-2.572h-3.285a4.478 4.478 0 011.305 2.572zm-4.448-2.572a3.214 3.214 0 100 6.429 3.214 3.214 0 000-6.429zm0 5.143a1.929 1.929 0 110-3.857 1.929 1.929 0 010 3.857z"/><path d="M7.714 26.357a.643.643 0 100 1.286.643.643 0 000-1.286zm-6.428-2.572v1.929a.645.645 0 00.643.643h1.337a4.48 4.48 0 011.305-2.572H1.286zm22.5-17.357a.645.645 0 00-.643-.643H.643A.645.645 0 000 6.428v16.071h23.786V6.428zm-3.857 17.357h-4.5v2.572h4.5v-2.572zm15.904-7.014l-4.43-4.989a.646.646 0 00-.481-.212h-1.993V18a.645.645 0 00.643.643H36v-1.44c0-.16-.06-.313-.167-.43zm-7.547 7.014a3.214 3.214 0 100 6.429 3.214 3.214 0 000-6.429zm0 5.143a1.929 1.929 0 110-3.857 1.929 1.929 0 010 3.857z"/><path d="M27.643 17.999V11.57H25.07V22.5h3.215a4.502 4.502 0 014.448 3.857h2.623a.645.645 0 00.643-.643v-5.786H29.57A1.934 1.934 0 0127.643 18zm-6.429 5.786v2.572h2.623a4.48 4.48 0 011.305-2.572h-3.928zm7.071 2.572a.643.643 0 100 1.286.643.643 0 000-1.286z"/></g><defs><clipPath id="ga"><path d="M0 0h36v36H0z"/></clipPath></defs></symbol></svg>