<svg width="20" height="20" viewBox="0 0 20 20" fill="none" xmlns="http://www.w3.org/2000/svg">
<g clip-path="url(#clip0)">
<path d="M13.8293 1.23438H2.26172C1.01445 1.23438 0 2.24883 0 3.49609V13.6328C0 14.1129 0.54293 14.3835 0.926172 14.1098L4.14766 11.8113C4.41797 11.6187 4.73594 11.5168 5.06797 11.5168H12.1535C13.4008 11.5168 14.4152 10.5023 14.4152 9.25508V1.82031C14.4152 1.49688 14.1527 1.23438 13.8293 1.23438ZM10.9832 8.33242H4.21328C3.88984 8.33242 3.62734 8.07031 3.62734 7.74648C3.62734 7.42305 3.88984 7.16055 4.21328 7.16055H10.9832C11.3066 7.16055 11.5691 7.42305 11.5691 7.74648C11.5691 8.07031 11.3066 8.33242 10.9832 8.33242ZM10.9832 5.59805H4.21328C3.88984 5.59805 3.62734 5.33594 3.62734 5.01211C3.62734 4.68867 3.88984 4.42617 4.21328 4.42617H10.9832C11.3066 4.42617 11.5691 4.68867 11.5691 5.01211C11.5691 5.33594 11.3066 5.59805 10.9832 5.59805Z" fill="#EDB021"/>
<path d="M20.0002 8.04141V18.1777C20.0002 18.6546 19.46 18.9304 19.074 18.6547L15.8525 16.3566C15.5822 16.1641 15.2643 16.0621 14.9322 16.0621H7.84668C6.59941 16.0621 5.58496 15.0473 5.58496 13.8V12.6891H12.1537C14.0471 12.6891 15.5873 11.1488 15.5873 9.25547V5.7793H17.7385C18.9857 5.7793 20.0002 6.79414 20.0002 8.04141Z" fill="#EDB021"/>
</g>
<defs>
<clipPath id="clip0">
<rect width="20" height="20" fill="white"/>
</clipPath>
</defs>
</svg>
