<svg width="30" height="30" viewBox="0 0 30 30" fill="none" xmlns="http://www.w3.org/2000/svg">
<circle cx="15" cy="15" r="15" fill="#EFF2F6"/>
<path d="M17.0691 9.47279C17.9939 10.0526 18.6423 11.0338 18.7604 12.1727C19.1375 12.3489 19.5561 12.4502 19.9999 12.4502C21.62 12.4502 22.9331 11.1371 22.9331 9.51722C22.9331 7.8971 21.62 6.58398 19.9999 6.58398C18.3952 6.58448 17.0936 7.87414 17.0691 9.47279ZM15.1475 15.4785C16.7676 15.4785 18.0807 14.1652 18.0807 12.5453C18.0807 10.9254 16.7674 9.61231 15.1475 9.61231C13.5276 9.61231 12.2138 10.9257 12.2138 12.5455C12.2138 14.1654 13.5276 15.4785 15.1475 15.4785ZM16.3917 15.6785H13.9028C11.8319 15.6785 10.1471 17.3635 10.1471 19.4344V22.4782L10.1549 22.5258L10.3645 22.5915C12.3408 23.209 14.0578 23.4149 15.471 23.4149C18.2312 23.4149 19.8312 22.6279 19.9297 22.5777L20.1257 22.4787H20.1466V19.4344C20.1474 17.3635 18.4626 15.6785 16.3917 15.6785ZM21.2446 12.6504H18.7749C18.7482 13.6385 18.3263 14.5283 17.6592 15.1683C19.4999 15.7156 20.8468 17.4226 20.8468 19.4388V20.3768C23.2853 20.2875 24.6905 19.5963 24.7831 19.5499L24.979 19.4506H25V16.4058C25 14.3351 23.3152 12.6504 21.2446 12.6504ZM10.0006 12.4507C10.5744 12.4507 11.1083 12.2832 11.5606 11.9979C11.7044 11.0602 12.207 10.2408 12.9251 9.6827C12.9281 9.62779 12.9334 9.57338 12.9334 9.51797C12.9334 7.89785 11.62 6.58473 10.0006 6.58473C8.38026 6.58473 7.06739 7.89785 7.06739 9.51797C7.06739 11.1373 8.38026 12.4507 10.0006 12.4507ZM12.6348 15.1683C11.9709 14.5316 11.5506 13.6465 11.5199 12.6644C11.4283 12.6576 11.3377 12.6504 11.2444 12.6504H8.75565C6.68476 12.6504 5 14.3351 5 16.4058V19.4501L5.00774 19.497L5.2174 19.5631C6.80282 20.0581 8.21777 20.2862 9.44677 20.3581V19.4388C9.44727 17.4226 10.7936 15.7161 12.6348 15.1683Z" fill="white"/>
</svg>
