<svg width="12" height="12" viewBox="0 0 12 12" fill="none" xmlns="http://www.w3.org/2000/svg">
<g clip-path="url(#clip0_1:45078)">
<path d="M6.54983 5.45027L6.54976 0.77753C6.54984 0.473512 6.30412 0.227792 6.0001 0.227864C5.69615 0.227864 5.45043 0.473585 5.45043 0.777532L5.45042 5.45034L0.777682 5.45028C0.473663 5.45035 0.228014 5.696 0.228014 5.99995C0.227942 6.30396 0.473662 6.54968 0.777681 6.54961L5.45042 6.54968L5.45049 11.2224C5.45042 11.5264 5.69614 11.7722 6.00016 11.7721C6.1517 11.7722 6.28937 11.7107 6.38888 11.6111C6.48839 11.5116 6.54982 11.374 6.54982 11.2224L6.54976 6.54968L11.2226 6.54967C11.3742 6.54967 11.5118 6.48824 11.6113 6.38873C11.7108 6.28922 11.7722 6.15162 11.7722 6.00001C11.7723 5.69599 11.5266 5.45027 11.2226 5.45034L6.54983 5.45027Z" fill="#161718"/>
</g>
<defs>
<clipPath id="clip0_1:45078">
<rect width="12" height="12" fill="white"/>
</clipPath>
</defs>
</svg>
