<svg width="20" height="20" viewBox="0 0 20 20" fill="none" xmlns="http://www.w3.org/2000/svg">
<g clip-path="url(#clip0)">
<path d="M14.7011 0.799805H6.09817C3.17665 0.799805 0.799805 3.17676 0.799805 6.09828V14.7012C0.799805 17.6228 3.17665 19.9997 6.09817 19.9997H14.7011C17.6228 19.9997 19.9997 17.6227 19.9997 14.7012V6.09828C19.9998 3.17676 17.6228 0.799805 14.7011 0.799805ZM18.2963 14.7012C18.2963 16.6835 16.6835 18.2962 14.7012 18.2962H6.09817C4.11596 18.2963 2.50331 16.6835 2.50331 14.7012V6.09828C2.50331 4.11608 4.11596 2.50331 6.09817 2.50331H14.7011C16.6834 2.50331 18.2962 4.11608 18.2962 6.09828V14.7012H18.2963Z" fill="white"/>
<path d="M10.3995 5.45264C7.67148 5.45264 5.45215 7.67196 5.45215 10.4C5.45215 13.1278 7.67148 15.3471 10.3995 15.3471C13.1275 15.3471 15.3468 13.1278 15.3468 10.4C15.3468 7.67196 13.1275 5.45264 10.3995 5.45264ZM10.3995 13.6434C8.6109 13.6434 7.15566 12.1884 7.15566 10.3998C7.15566 8.61116 8.61079 7.15603 10.3995 7.15603C12.1882 7.15603 13.6433 8.61116 13.6433 10.3998C13.6433 12.1884 12.188 13.6434 10.3995 13.6434Z" fill="white"/>
<path d="M15.5549 4.0083C15.2267 4.0083 14.9043 4.14117 14.6725 4.37399C14.4396 4.60566 14.3057 4.92819 14.3057 5.25754C14.3057 5.58586 14.4397 5.90828 14.6725 6.14109C14.9042 6.37277 15.2267 6.50678 15.5549 6.50678C15.8842 6.50678 16.2056 6.37277 16.4384 6.14109C16.6713 5.90828 16.8041 5.58575 16.8041 5.25754C16.8041 4.92819 16.6713 4.60566 16.4384 4.37399C16.2068 4.14117 15.8842 4.0083 15.5549 4.0083Z" fill="white"/>
</g>
<defs>
<clipPath id="clip0">
<rect width="19.2" height="19.2" fill="white" transform="translate(0.799805 0.799805)"/>
</clipPath>
</defs>
</svg>
