<svg width="20" height="20" viewBox="0 0 20 20" fill="none" xmlns="http://www.w3.org/2000/svg">
<g clip-path="url(#clip0)">
<path d="M19.8287 14.6936C19.7771 14.6072 19.4578 13.9135 17.9217 12.4878C16.3136 10.9949 16.5296 11.2373 18.4666 8.65594C19.6463 7.08383 20.1179 6.12375 19.9703 5.71332C19.8299 5.32209 18.9622 5.4253 18.9622 5.4253L16.0772 5.4421C16.0772 5.4421 15.8636 5.4133 15.704 5.50811C15.5492 5.60172 15.4495 5.81773 15.4495 5.81773C15.4495 5.81773 14.9923 7.03462 14.3827 8.0691C13.0974 10.2521 12.5825 10.3673 12.3725 10.2317C11.8841 9.91604 12.0065 8.96197 12.0065 8.28512C12.0065 6.16936 12.3269 5.28729 11.3812 5.05928C11.0668 4.98367 10.8364 4.93327 10.0335 4.92487C9.00387 4.91406 8.13141 4.92847 7.63817 5.16968C7.30935 5.3305 7.05613 5.68932 7.21094 5.70972C7.40176 5.73493 7.83379 5.82613 8.063 6.13816C8.35943 6.54019 8.34863 7.44505 8.34863 7.44505C8.34863 7.44505 8.51904 9.93524 7.9514 10.2449C7.56137 10.4573 7.02733 10.024 5.88124 8.0427C5.2944 7.02862 4.85037 5.90654 4.85037 5.90654C4.85037 5.90654 4.76516 5.69772 4.61275 5.58611C4.42794 5.4505 4.16872 5.4073 4.16872 5.4073L1.42532 5.4241C1.42532 5.4241 1.01369 5.4361 0.862477 5.61492C0.728067 5.77453 0.851676 6.10335 0.851676 6.10335C0.851676 6.10335 2.99983 11.1281 5.43121 13.6615C7.66218 15.9837 10.1944 15.8313 10.1944 15.8313H11.3416C11.3416 15.8313 11.6885 15.7929 11.8649 15.6021C12.0281 15.4268 12.0221 15.098 12.0221 15.098C12.0221 15.098 11.9993 13.5583 12.7145 13.3315C13.419 13.1083 14.3239 14.8196 15.2827 15.4784C16.0076 15.9765 16.5584 15.8673 16.5584 15.8673L19.123 15.8313C19.123 15.8313 20.4647 15.7485 19.8287 14.6936Z" fill="white"/>
</g>
<defs>
<clipPath id="clip0">
<rect width="19.2" height="19.2" fill="white" transform="translate(0.799805 0.799805)"/>
</clipPath>
</defs>
</svg>
