<svg width="20" height="20" viewBox="0 0 20 20" fill="none" xmlns="http://www.w3.org/2000/svg">
<path d="M18.7301 2.22119H1.26986C0.56859 2.22119 0 2.78975 0 3.49101V16.5069C0 17.2081 0.56859 17.7767 1.26986 17.7767H18.7301C19.4314 17.7767 20 17.2081 20 16.5069V3.49101C20 2.78975 19.4314 2.22119 18.7301 2.22119ZM18.7301 3.49101V12.7262L16.2276 10.451C15.8514 10.1091 15.273 10.1227 14.9136 10.4824L12.3809 13.0148L7.38699 7.04972C7.0095 6.59892 6.31807 6.59449 5.93492 7.03988L1.26986 12.4615V3.49101H18.7301ZM13.3333 6.82434C13.3333 5.85989 14.1149 5.0783 15.0793 5.0783C16.0438 5.0783 16.8254 5.85989 16.8254 6.82434C16.8254 7.78879 16.0438 8.57034 15.0793 8.57034C14.1149 8.57038 13.3333 7.78879 13.3333 6.82434Z" fill="#848484"/>
</svg>
