<svg width="16" height="16" viewBox="0 0 16 16" fill="none" xmlns="http://www.w3.org/2000/svg">
<path d="M7.99983 7.8516C9.51198 7.8516 10.7379 6.36262 10.7379 4.52592C10.7379 2.68918 10.3354 1.2002 7.99983 1.2002C5.66421 1.2002 5.26172 2.68918 5.26172 4.52592C5.26176 6.36262 6.48768 7.8516 7.99983 7.8516Z" fill="#848484"/>
<path d="M13.1653 12.795C13.1147 9.59531 12.6968 8.68359 9.49907 8.10645C9.49907 8.10645 9.04886 8.68001 7.9997 8.68001C6.95054 8.68001 6.50041 8.10645 6.50041 8.10645C3.33756 8.67725 2.89419 9.57548 2.83591 12.691C2.83117 12.9454 2.82899 12.9587 2.82812 12.9292C2.82829 12.9845 2.82854 13.0869 2.82854 13.2654C2.82854 13.2654 3.58986 14.8001 7.99974 14.8001C12.4096 14.8001 13.171 13.2654 13.171 13.2654C13.171 13.1507 13.1711 13.0709 13.1712 13.0167C13.1703 13.035 13.1685 12.9996 13.1653 12.795Z" fill="#848484"/>
<path d="M11.8003 7.25763C13.0285 7.25763 14.0241 6.04831 14.0241 4.55657C14.0241 3.06478 13.6972 1.85547 11.8003 1.85547C11.4812 1.85547 11.2066 1.8898 10.9704 1.95389C11.4086 2.76158 11.4686 3.74261 11.4686 4.5257C11.4686 5.41236 11.2283 6.25887 10.7856 6.95978C11.0899 7.14977 11.4346 7.25763 11.8003 7.25763Z" fill="#848484"/>
<path d="M15.9948 11.2728C15.9536 8.67407 15.6142 7.9336 13.017 7.46484C13.017 7.46484 12.6514 7.93072 11.7993 7.93072C11.7641 7.93072 11.7299 7.92964 11.6963 7.92812C12.2377 8.17222 12.7302 8.51211 13.093 9.00947C13.72 9.86929 13.8642 11.0243 13.8939 12.7212C15.6412 12.3759 15.9993 11.6549 15.9993 11.6549C15.9993 11.5609 15.9993 11.4965 15.9995 11.4524C15.9988 11.4679 15.9974 11.4401 15.9948 11.2728Z" fill="#848484"/>
<path d="M4.2003 7.25759C4.56598 7.25759 4.91064 7.14973 5.215 6.95978C4.77237 6.25887 4.53202 5.41236 4.53202 4.5257C4.53202 3.74257 4.59207 2.76154 5.03012 1.95389C4.79397 1.8898 4.51945 1.85547 4.2003 1.85547C2.30338 1.85547 1.97656 3.06478 1.97656 4.55657C1.97656 6.04827 2.97219 7.25759 4.2003 7.25759Z" fill="#848484"/>
<path d="M4.30313 7.92812C4.26958 7.92964 4.23542 7.93072 4.2001 7.93072C3.34798 7.93072 2.98238 7.46484 2.98238 7.46484C0.3853 7.9336 0.0458701 8.67403 0.0047395 11.2728C0.00206065 11.4402 0.000700621 11.4679 0 11.4524C8.2426e-05 11.4964 0.000164852 11.5609 0.000164852 11.6548C0.000164852 11.6548 0.358306 12.3759 2.10549 12.7211C2.13537 11.0243 2.27945 9.86929 2.90659 9.00942C3.26926 8.51215 3.76172 8.17222 4.30313 7.92812Z" fill="#848484"/>
</svg>
