<svg width="16" height="16" viewBox="0 0 16 16" fill="none" xmlns="http://www.w3.org/2000/svg">
<path d="M9.52046 1.38867H6.46026C6.14728 1.38867 5.89355 1.6424 5.89355 1.95538V14.0394C5.89355 14.3524 6.14728 14.6061 6.46026 14.6061H9.52046C9.83344 14.6061 10.0872 14.3524 10.0872 14.0394V1.95538C10.0872 1.64236 9.83344 1.38867 9.52046 1.38867Z" fill="#EDB021"/>
<path d="M15.4336 8.43555H12.3733C12.0604 8.43555 11.8066 8.68927 11.8066 9.00225V14.0441C11.8066 14.357 12.0604 14.6108 12.3733 14.6108H15.4336C15.7465 14.6108 16.0003 14.357 16.0003 14.0441V9.00225C16.0003 8.68924 15.7465 8.43555 15.4336 8.43555Z" fill="#EDB021"/>
<path d="M3.62692 5.9043H0.566706C0.253726 5.9043 0 6.15802 0 6.471V14.0365C0 14.3495 0.253726 14.6032 0.566706 14.6032H3.62692C3.9399 14.6032 4.19362 14.3495 4.19362 14.0365V6.471C4.19362 6.15802 3.9399 5.9043 3.62692 5.9043Z" fill="#EDB021"/>
</svg>
