<svg width="20" height="20" viewBox="0 0 20 20" fill="none" xmlns="http://www.w3.org/2000/svg">
<path d="M9.99979 9.81426C11.89 9.81426 13.4224 7.95303 13.4224 5.65716C13.4224 3.36123 12.9192 1.5 9.99979 1.5C7.08026 1.5 6.57715 3.36123 6.57715 5.65716C6.5772 7.95303 8.1096 9.81426 9.99979 9.81426Z" fill="#D2D2D2"/>
<path d="M16.4567 15.9935C16.3934 11.9939 15.871 10.8542 11.8738 10.1328C11.8738 10.1328 11.3111 10.8498 9.99962 10.8498C8.68817 10.8498 8.12551 10.1328 8.12551 10.1328C4.17195 10.8463 3.61774 11.9691 3.54489 15.8635C3.53897 16.1815 3.53624 16.1982 3.53516 16.1612C3.53536 16.2304 3.53567 16.3583 3.53567 16.5815C3.53567 16.5815 4.48733 18.4999 9.99967 18.4999C15.512 18.4999 16.4638 16.5815 16.4638 16.5815C16.4638 16.4381 16.4639 16.3384 16.464 16.2707C16.4629 16.2935 16.4607 16.2492 16.4567 15.9935Z" fill="#D2D2D2"/>
<path d="M14.7497 9.07106C16.285 9.07106 17.5295 7.55942 17.5295 5.69473C17.5295 3.83 17.1209 2.31836 14.7497 2.31836C14.3509 2.31836 14.0077 2.36127 13.7124 2.44138C14.2601 3.451 14.3352 4.67729 14.3352 5.65615C14.3352 6.76447 14.0347 7.82261 13.4814 8.69875C13.8617 8.93624 14.2927 9.07106 14.7497 9.07106Z" fill="#D2D2D2"/>
<path d="M19.9932 14.09C19.9417 10.8416 19.5175 9.91602 16.2711 9.33008C16.2711 9.33008 15.8141 9.91242 14.7489 9.91242C14.7049 9.91242 14.6622 9.91108 14.6201 9.90917C15.2969 10.2143 15.9126 10.6392 16.366 11.2609C17.1498 12.3356 17.33 13.7794 17.3672 15.9005C19.5513 15.4689 19.9989 14.5676 19.9989 14.5676C19.9989 14.4502 19.9989 14.3696 19.9991 14.3145C19.9983 14.3339 19.9965 14.2992 19.9932 14.09Z" fill="#D2D2D2"/>
<path d="M5.25037 9.07296C5.70747 9.07296 6.1383 8.93814 6.51875 8.7007C5.96547 7.82457 5.66502 6.76642 5.66502 5.6581C5.66502 4.67919 5.74008 3.4529 6.28765 2.44333C5.99246 2.36323 5.64931 2.32031 5.25037 2.32031C2.87923 2.32031 2.4707 3.83195 2.4707 5.69669C2.4707 7.56132 3.71523 9.07296 5.25037 9.07296Z" fill="#D2D2D2"/>
<path d="M5.37891 9.90917C5.33698 9.91108 5.29427 9.91242 5.25012 9.91242C4.18497 9.91242 3.72797 9.33008 3.72797 9.33008C0.481625 9.91602 0.0573376 10.8416 0.00592437 14.09C0.00257581 14.2992 0.000875776 14.3339 0 14.3145C0.000103033 14.3695 0.000206065 14.4501 0.000206065 14.5676C0.000206065 14.5676 0.447882 15.4689 2.63186 15.9005C2.66921 13.7794 2.84931 12.3356 3.63323 11.2608C4.08658 10.6392 4.70215 10.2143 5.37891 9.90917Z" fill="#D2D2D2"/>
</svg>
